<svg width="144" height="108" viewBox="0 0 144 108" fill="none" xmlns="http://www.w3.org/2000/svg">
<g clip-path="url(#clip0_65_26)">
<path d="M74.2098 11.9015V60.0519C74.2098 61.4209 75.3262 62.541 76.6906 62.541H77.3109V70.3509C77.3109 71.2377 76.5976 71.9533 75.7138 71.9533H68.3021C67.4183 71.9533 66.7051 71.2377 66.7051 70.3509V62.541H67.5424C68.9069 62.541 70.0233 61.4209 70.0233 60.0519V11.9015C70.0233 10.5324 68.9069 9.41227 67.5424 9.41227H66.7051V1.60242C66.7051 0.715644 67.4183 0 68.3021 0H75.7138C76.5976 0 77.3109 0.715644 77.3109 1.60242V9.41227H76.6906C75.3107 9.41227 74.2098 10.5169 74.2098 11.9015Z" fill="white"/>
<path d="M80.7363 22.4959V49.457C80.7363 50.826 81.8527 51.9462 83.2172 51.9462H83.3412V60.0516C83.3412 60.9384 82.6279 61.654 81.7441 61.654H78.1934V10.2988H81.7441C82.6279 10.2988 83.3412 11.0145 83.3412 11.9012V20.0067H83.2172C81.8527 20.0067 80.7363 21.1268 80.7363 22.4959Z" fill="white"/>
<path d="M86.5833 27.3664V44.6041C86.5833 45.8954 87.5756 46.9689 88.8471 47.0778V49.4581C88.8471 50.3448 88.1338 51.0605 87.25 51.0605H84.2109V20.8945H87.25C88.1338 20.8945 88.8471 21.6102 88.8471 22.497V24.8772C87.5756 24.9861 86.5833 26.0596 86.5833 27.3664Z" fill="white"/>
<path d="M93.2038 27.3651V44.6028C93.2038 45.4896 92.4906 46.2052 91.6068 46.2052H89.7461V25.7627H91.6068C92.4751 25.7627 93.2038 26.4783 93.2038 27.3651Z" fill="white"/>
<path d="M103.887 41.3209C106.824 41.3209 109.205 38.9318 109.205 35.9847C109.205 33.0375 106.824 30.6484 103.887 30.6484C100.949 30.6484 98.5684 33.0375 98.5684 35.9847C98.5684 38.9318 100.949 41.3209 103.887 41.3209Z" fill="white"/>
<path d="M119.78 38.7223C121.287 38.7223 122.509 37.4964 122.509 35.9842C122.509 34.472 121.287 33.2461 119.78 33.2461C118.273 33.2461 117.051 34.472 117.051 35.9842C117.051 37.4964 118.273 38.7223 119.78 38.7223Z" fill="white"/>
<path d="M61.2168 52.2733V60.0521C61.2168 60.7522 61.7905 61.3278 62.4883 61.3278H65.4963V10.626H62.4883C61.7905 10.626 61.2168 11.2016 61.2168 11.9017V19.696C62.6588 19.8049 63.8062 21.0184 63.8062 22.5119V49.473C63.8062 50.9354 62.6743 52.1644 61.2168 52.2733Z" fill="white"/>
<path d="M55.7109 47.3573V49.4575C55.7109 50.1576 56.2846 50.7332 56.9824 50.7332H59.6959V21.2207H56.9824C56.2846 21.2207 55.7109 21.7963 55.7109 22.4964V24.5967C56.9979 24.8456 57.9747 26.0124 57.9747 27.3659V44.6036C57.9747 45.9415 56.9979 47.1083 55.7109 47.3573Z" fill="white"/>
<path d="M52.625 26.0889C51.9272 26.0889 51.3535 26.6645 51.3535 27.3646V44.6023C51.3535 45.3024 51.9272 45.878 52.625 45.878H54.1755V26.0889H52.625Z" fill="white"/>
<path d="M40.3301 30.6484C37.3996 30.6484 35.0117 33.0443 35.0117 35.9847C35.0117 38.925 37.3996 41.3209 40.3301 41.3209C43.2607 41.3209 45.6485 38.925 45.6485 35.9847C45.6485 33.0443 43.2762 30.6484 40.3301 30.6484ZM40.3301 39.6407C38.3144 39.6407 36.6863 37.9916 36.6863 35.9847C36.6863 33.9622 38.3299 32.3286 40.3301 32.3286C42.3303 32.3286 43.9739 33.9777 43.9739 35.9847C43.9894 37.9916 42.3458 39.6407 40.3301 39.6407Z" fill="white"/>
<path d="M24.436 33.2461C22.932 33.2461 21.707 34.4751 21.707 35.9842C21.707 37.4933 22.932 38.7223 24.436 38.7223C25.94 38.7223 27.165 37.4933 27.165 35.9842C27.165 34.4751 25.94 33.2461 24.436 33.2461ZM24.436 37.0421C23.8623 37.0421 23.3816 36.5598 23.3816 35.9842C23.3816 35.393 23.8623 34.9263 24.436 34.9263C25.0252 34.9263 25.4904 35.4086 25.4904 35.9842C25.4904 36.5598 25.0252 37.0421 24.436 37.0421Z" fill="white"/>
<path d="M7.72188 86.966C7.17919 86.1881 6.0938 85.7058 4.91538 85.6902C3.38033 85.6902 2.27943 86.3281 2.27943 87.4171C2.27943 88.5217 3.55089 88.8329 5.03942 89.0507C7.38076 89.3774 9.61356 90.0308 9.61356 92.5822C9.59805 95.1492 7.27222 96.0982 4.89987 96.0982C2.7291 96.0982 1.0545 95.4292 0.015625 93.5001L1.38011 92.5822C2.1864 93.9668 3.61291 94.4647 4.91538 94.4647C6.27987 94.4647 7.79941 94.0135 7.79941 92.5666C7.79941 91.322 6.48144 90.902 4.88437 90.6842C2.62056 90.373 0.480791 89.7974 0.480791 87.3549C0.465286 84.9902 2.82213 84.0723 4.86886 84.0723C6.51245 84.0723 8.15604 84.4612 9.11738 86.0014L7.72188 86.966Z" fill="white"/>
<path d="M19.4903 95.8498V91.1048H13.4742V95.8498H11.6445V84.4307H13.4587V89.4091H19.4748V84.4307H21.2735V95.8498H19.4903Z" fill="white"/>
<path d="M24.1426 95.8498V84.4307H25.9412V95.8498H24.1426Z" fill="white"/>
<path d="M34.1891 95.9112H32.2819L27.5527 84.4453H29.5995L33.2278 93.7176L36.8716 84.4453H38.9028L34.1891 95.9112Z" fill="white"/>
<path d="M48.9196 95.8498H40.5156C40.5156 92.0538 40.5156 88.2422 40.5156 84.4307H48.8731V86.2042H42.3453V89.3002H48.625V90.9959H42.3453V94.0607H48.9196V95.8498Z" fill="white"/>
<path d="M59.1076 92.5663V84.4453H60.9373V95.8645H59.5573L53.107 87.8057V95.8645H51.2773V84.4453H52.6728L59.1076 92.5663Z" fill="white"/>
<path d="M68.0996 84.4453C71.976 84.4453 73.7591 87.2301 73.8056 90.0616C73.8677 92.9553 72.0845 95.8645 68.0996 95.8645C66.7351 95.8645 65.1536 95.8645 63.7891 95.8645V84.4453H68.0996ZM65.5877 94.0909H68.0841C70.8596 94.0909 72.038 92.0374 71.9915 90.0304C71.945 88.1013 70.7666 86.1878 68.0841 86.1878H65.5877V94.0909Z" fill="white"/>
<path d="M85.7916 95.8498H83.6673L80.2096 91.8982H77.8062V95.8498H75.9766V84.415C77.7442 84.415 79.4963 84.4306 81.2795 84.4306C83.9154 84.4306 85.2954 86.2353 85.2954 88.1644C85.2954 89.7979 84.4581 91.4003 82.2098 91.7115L85.59 95.5231L85.7916 95.8498ZM77.7907 86.1108V90.2491H81.2484C82.7525 90.2491 83.4192 89.2845 83.4192 88.2111C83.4192 87.1843 82.7525 86.1108 81.2639 86.1108H77.7907Z" fill="white"/>
<path d="M95.5759 93.454H89.4202L88.3503 95.8498H86.4121L91.5134 84.4307H93.4981L98.5995 95.8498H96.6613L95.5759 93.454ZM92.5058 86.3598L90.1024 91.7893H94.9091L92.5058 86.3598Z" fill="white"/>
<path d="M131.503 94.3866C130.34 95.5379 128.82 96.0824 127.223 96.0824C123.099 96.0824 121.238 93.2354 121.223 90.2328C121.207 87.2302 123.161 84.2432 127.223 84.2432C128.758 84.2432 130.231 84.8188 131.379 85.97L130.154 87.1369C129.348 86.3434 128.262 85.97 127.208 85.97C124.308 85.97 123.006 88.1014 123.021 90.2017C123.037 92.2864 124.277 94.3555 127.208 94.3555C128.262 94.3555 129.441 93.9199 130.231 93.1109L131.503 94.3866Z" fill="white"/>
<path d="M144 90.2016C144 93.282 142.124 96.0979 138.186 96.0979C134.247 96.0979 132.371 93.2042 132.371 90.2172C132.371 86.7479 134.79 84.2275 138.217 84.2275C142.093 84.2431 144 87.1212 144 90.2016ZM138.186 94.4177C141.008 94.4177 142.202 92.4108 142.202 90.2327C142.202 88.1325 140.992 85.9389 138.217 85.8922C135.581 85.8922 134.17 87.728 134.17 90.2327C134.201 92.2552 135.379 94.4177 138.186 94.4177Z" fill="white"/>
<path d="M25.878 107.907H25.2423L24.2964 105.169L23.5212 102.757L22.7614 105.153L21.8156 107.891H21.1643L18.916 101.513H19.6293L21.4744 107.02L23.3196 101.513H23.7227L25.5679 107.02L27.4286 101.513H28.1418L25.878 107.907Z" fill="white"/>
<path d="M33.8166 107.89H29.2734C29.2734 105.775 29.2734 103.643 29.2734 101.527H33.739V102.134H29.9092V104.421H33.5685V105.012H29.9092V107.299H33.8166V107.89Z" fill="white"/>
<path d="M42.034 107.89V105.074H38.2041V107.89H37.5684V101.527H38.2041V104.468H42.034V101.527H42.6697V107.89H42.034Z" fill="white"/>
<path d="M48.965 107.89H44.4219C44.4219 105.775 44.4219 103.643 44.4219 101.527H48.8875V102.134H45.0576V104.421H48.7169V105.012H45.0576V107.299H48.965V107.89Z" fill="white"/>
<path d="M54.6725 106.412H50.9977L50.3464 107.89H49.6797L52.5172 101.527H53.1529L55.9904 107.89H55.3237L54.6725 106.412ZM51.2457 105.837H54.4089L52.8273 102.227L51.2457 105.837Z" fill="white"/>
<path d="M62.253 107.89H61.4312L59.3379 105.541H57.6943V107.89H57.0586V101.527C58.0044 101.527 58.9503 101.527 59.8961 101.527C61.3071 101.527 61.9894 102.476 61.9894 103.55C62.0049 104.545 61.4157 105.432 60.0822 105.494L62.253 107.89ZM57.6943 102.134V104.95H59.8651C60.873 104.95 61.3691 104.343 61.3691 103.55C61.3691 102.756 60.873 102.134 59.8961 102.134H57.6943Z" fill="white"/>
<path d="M67.6039 104.717L69.6506 101.543H70.3949V101.558L67.9295 105.323V107.89H67.2937V105.323L64.8594 101.543V101.527H65.5881L67.6039 104.717Z" fill="white"/>
<path d="M77.0619 104.733C77.0464 106.397 76.0075 108.015 73.8522 108.015C71.697 108.015 70.6426 106.397 70.6426 104.733C70.6426 102.944 71.8055 101.435 73.8522 101.435C76.0075 101.435 77.0774 103.037 77.0619 104.733ZM73.8677 107.409C75.5888 107.409 76.4261 106.086 76.4417 104.733C76.4417 103.301 75.6044 102.041 73.8677 102.026C72.1621 102.026 71.2628 103.239 71.2938 104.733C71.3093 106.117 72.1311 107.409 73.8677 107.409Z" fill="white"/>
<path d="M83.3715 101.527V105.401C83.3715 107.112 82.2551 107.937 80.8751 107.937C79.4951 107.937 78.3477 107.112 78.3477 105.401V101.527H78.9834V105.401C78.9834 106.615 79.8052 107.346 80.8906 107.346C81.8519 107.346 82.7512 106.724 82.7512 105.401V101.527H83.3715Z" fill="white"/>
<path d="M90.2569 107.89H89.4351L87.3418 105.541H85.6982V107.89H85.0625V101.527C86.0083 101.527 86.9542 101.527 87.9 101.527C89.311 101.527 89.9933 102.476 89.9933 103.55C90.0088 104.545 89.4196 105.432 88.0861 105.494L90.2569 107.89ZM85.6982 102.134V104.95H87.869C88.8769 104.95 89.373 104.343 89.373 103.55C89.373 102.756 88.8769 102.134 87.9 102.134H85.6982Z" fill="white"/>
<path d="M93.8398 107.89V101.527H98.1814V102.134H94.4756V104.545H98.0418V105.152H94.4756V107.89H93.8398Z" fill="white"/>
<path d="M104.459 101.527V105.401C104.459 107.112 103.343 107.937 101.963 107.937C100.583 107.937 99.4355 107.112 99.4355 105.401V101.527H100.071V105.401C100.071 106.615 100.893 107.346 101.978 107.346C102.94 107.346 103.839 106.724 103.839 105.401V101.527H104.459Z" fill="white"/>
<path d="M107.653 102.134H105.42V101.527C107.219 101.527 108.738 101.527 110.521 101.527V102.134H108.288V107.89H107.653V102.134Z" fill="white"/>
<path d="M116.508 101.527V105.401C116.508 107.112 115.392 107.937 114.012 107.937C112.632 107.937 111.484 107.112 111.484 105.401V101.527H112.12V105.401C112.12 106.615 112.942 107.346 114.027 107.346C114.989 107.346 115.888 106.724 115.888 105.401V101.527H116.508Z" fill="white"/>
<path d="M123.392 107.89H122.57L120.477 105.541H118.833V107.89H118.197V101.527C119.143 101.527 120.089 101.527 121.035 101.527C122.446 101.527 123.128 102.476 123.128 103.55C123.144 104.545 122.554 105.432 121.221 105.494L123.392 107.89ZM118.817 102.134V104.95H120.988C121.996 104.95 122.492 104.343 122.492 103.55C122.492 102.756 121.996 102.134 121.019 102.134H118.817Z" fill="white"/>
<path d="M129.145 107.89H124.602C124.602 105.775 124.602 103.643 124.602 101.527H129.067V102.134H125.237V104.421H128.897V105.012H125.237V107.299H129.145V107.89Z" fill="white"/>
<path d="M116.602 95.8493H114.509L113.098 94.3091C112.617 94.9003 112.09 95.3514 111.548 95.6626C111.005 95.9737 110.338 96.1293 109.578 96.1293C108.927 96.1293 108.369 96.036 107.888 95.8493C107.408 95.6626 107.02 95.4137 106.71 95.087C106.4 94.7758 106.167 94.418 106.028 94.0135C105.888 93.6245 105.811 93.2045 105.811 92.7845C105.811 92.38 105.888 92.0221 106.028 91.6799C106.167 91.3532 106.353 91.042 106.601 90.7775C106.834 90.5131 107.113 90.2641 107.439 90.0463C107.764 89.8285 108.09 89.6418 108.431 89.4707C108.059 89.0818 107.749 88.6773 107.485 88.2572C107.222 87.8372 107.082 87.3549 107.082 86.7948C107.082 86.3592 107.16 85.9703 107.33 85.6436C107.501 85.3013 107.718 85.0213 108.012 84.7879C108.291 84.5545 108.617 84.3834 108.989 84.2589C109.361 84.1345 109.749 84.0723 110.152 84.0723C110.555 84.0723 110.927 84.1345 111.3 84.2278C111.656 84.3367 111.982 84.4923 112.245 84.7101C112.509 84.9279 112.726 85.1924 112.881 85.5191C113.036 85.8458 113.114 86.2192 113.114 86.6548C113.114 87.0126 113.036 87.3393 112.897 87.6349C112.757 87.9305 112.571 88.2106 112.338 88.4439C112.106 88.6928 111.858 88.9106 111.579 89.0973C111.3 89.284 111.005 89.4551 110.71 89.6107L112.99 91.991L114.432 89.6263H116.199L113.966 93.08L116.602 95.8493ZM109.377 90.4042C109.144 90.5286 108.912 90.6686 108.679 90.8242C108.446 90.9798 108.245 91.1509 108.059 91.3376C107.873 91.5243 107.718 91.7265 107.609 91.9599C107.501 92.1933 107.439 92.4577 107.439 92.7533C107.439 93.0334 107.501 93.2978 107.625 93.5468C107.749 93.7957 107.904 94.0135 108.105 94.1846C108.307 94.3713 108.54 94.5113 108.803 94.6202C109.051 94.7291 109.33 94.7758 109.609 94.7758C109.889 94.7758 110.152 94.7291 110.4 94.6513C110.648 94.558 110.865 94.4491 111.082 94.3246C111.3 94.1846 111.486 94.029 111.672 93.8579C111.858 93.6868 112.013 93.5001 112.168 93.3134L109.377 90.4042ZM111.548 86.717C111.548 86.3437 111.424 86.0325 111.16 85.8147C110.896 85.5969 110.571 85.488 110.152 85.488C109.733 85.488 109.377 85.6125 109.082 85.8458C108.772 86.0792 108.633 86.4214 108.633 86.8415C108.633 87.0437 108.664 87.2149 108.741 87.4016C108.819 87.5727 108.896 87.7438 109.02 87.915C109.129 88.0705 109.253 88.2261 109.392 88.3661C109.516 88.5061 109.656 88.6462 109.78 88.7706C109.982 88.6617 110.183 88.5373 110.385 88.4128C110.602 88.2883 110.788 88.1328 110.958 87.9772C111.129 87.8216 111.268 87.6349 111.393 87.4327C111.486 87.2149 111.548 86.9815 111.548 86.717Z" fill="white"/>
<path d="M63.5561 22.4959V49.457C63.5561 50.826 62.4397 51.9462 61.0752 51.9462H60.9512V60.0516C60.9512 60.9384 61.6644 61.654 62.5482 61.654H66.099V10.2988H62.5482C61.6644 10.2988 60.9512 11.0145 60.9512 11.9012V20.0067H61.0752C62.4397 20.0067 63.5561 21.1268 63.5561 22.4959Z" fill="white"/>
<path d="M57.7111 27.3664V44.6041C57.7111 45.8954 56.7187 46.9689 55.4473 47.0778V49.4581C55.4473 50.3448 56.1605 51.0605 57.0443 51.0605H60.0834V20.8945H57.0443C56.1605 20.8945 55.4473 21.6102 55.4473 22.497V24.8772C56.7187 24.9861 57.7111 26.0596 57.7111 27.3664Z" fill="white"/>
<path d="M51.1055 27.3651V44.6028C51.1055 45.4896 51.8187 46.2052 52.7025 46.2052H54.5632V25.7627H52.7025C51.8187 25.7627 51.1055 26.4783 51.1055 27.3651Z" fill="white"/>
</g>
<defs>
<clipPath id="clip0_65_26">
<rect width="144" height="108" fill="white"/>
</clipPath>
</defs>
</svg>
