<svg width="143" height="143" viewBox="0 0 143 143" fill="none" xmlns="http://www.w3.org/2000/svg">
<circle opacity="0.1" cx="71.5" cy="71.5" r="71.5" fill="url(#paint0_linear_159_14)"/>
<circle opacity="0.3" cx="71.5" cy="71.5" r="61.5" fill="url(#paint1_linear_159_14)"/>
<circle cx="71.5" cy="71.5" r="52.5" fill="url(#paint2_linear_159_14)"/>
<path d="M69.6518 44C68.3757 44.0995 67.1247 44.3446 65.9134 44.711V51.4158H63.1669V45.7975C61.9468 46.4015 60.7898 47.1311 59.7397 47.9978C59.7342 48.0024 59.73 48.0085 59.7245 48.0131V75.3995C59.73 75.4041 59.7342 75.4102 59.7397 75.4148C62.9261 78.0542 66.9556 79.4658 71.0007 79.4736C75.1396 79.4721 79.1384 77.9926 82.2617 75.4148C82.2674 75.4102 82.2715 75.4041 82.2769 75.3995V48.013C82.2714 48.0085 82.2673 48.0024 82.2617 47.9978C81.2188 47.1338 80.0782 46.4166 78.8835 45.8219V51.4158H76.1369V44.7294C74.918 44.3581 73.6649 44.1035 72.3984 44V51.4158H69.6519L69.6518 44ZM54.332 65.8842V79.907C55.3369 80.8344 56.4188 81.6766 57.5669 82.4277C60.212 84.1583 63.2067 85.3958 66.4231 86.0044V84.387H75.5784V86.0044C78.7949 85.3959 81.7895 84.1583 84.4346 82.4277C85.5827 81.6766 86.6646 80.8344 87.6695 79.907V65.8842H84.4346V78.2957C80.7688 81.2894 76.095 83.0869 71.0008 83.0869C65.9065 83.0869 61.2328 81.2893 57.5669 78.2957V65.8842H54.332ZM75.5784 86.0044C74.0954 86.2849 72.5649 86.4316 71.0007 86.4316C69.4365 86.4316 67.9059 86.2849 66.4231 86.0044V90.5667H61.0062V94H80.9953V90.5668H75.5784V86.0044Z" fill="white"/>
<defs>
<linearGradient id="paint0_linear_159_14" x1="71.5" y1="0" x2="71.5" y2="143" gradientUnits="userSpaceOnUse">
<stop stop-color="#007480"/>
<stop offset="1" stop-color="#000080"/>
</linearGradient>
<linearGradient id="paint1_linear_159_14" x1="71.5" y1="10" x2="71.5" y2="133" gradientUnits="userSpaceOnUse">
<stop stop-color="#007480"/>
<stop offset="1" stop-color="#000080"/>
</linearGradient>
<linearGradient id="paint2_linear_159_14" x1="71.5" y1="19" x2="71.5" y2="124" gradientUnits="userSpaceOnUse">
<stop stop-color="#007480"/>
<stop offset="1" stop-color="#000080"/>
</linearGradient>
</defs>
</svg>
