<svg width="84" height="89" viewBox="0 0 84 89" fill="none" xmlns="http://www.w3.org/2000/svg">
<path fill-rule="evenodd" clip-rule="evenodd" d="M18.8998 25.3927C17.9915 25.9457 18.6065 27.345 19.6699 27.3456C30.5004 27.3456 39.2777 37.3766 39.2777 49.7453C39.2777 62.1178 30.5004 72.1487 19.6699 72.1487C8.83934 72.1487 0.0585938 62.1215 0.0585938 49.7453C0.0585938 49.3875 0.0653615 49.0261 0.0822422 48.6682C0.0825605 48.6614 0.0771774 48.6558 0.0704226 48.6558C0.0638897 48.6558 0.0585936 48.6504 0.0585955 48.6439C0.0638039 31.43 11.3723 17.1765 25.9485 15.0654C28.0035 14.7678 29.6971 16.4792 29.6971 18.5556V19.2347C29.6971 20.9361 28.3098 22.2911 26.628 22.5485C23.8694 22.9707 21.2633 23.9537 18.8998 25.3927ZM62.7766 25.3958C61.8716 25.9475 62.486 27.3456 63.5459 27.3456C74.3764 27.3456 83.1572 37.3766 83.1572 49.7453C83.1572 62.1178 74.3764 72.1487 63.5459 72.1487C52.7154 72.1487 43.9381 62.1215 43.9381 49.7453C43.9381 49.3875 43.9449 49.0261 43.9618 48.6682C43.9621 48.6614 43.9567 48.6558 43.9499 48.6558C43.9434 48.6558 43.9381 48.6504 43.9381 48.6439C43.9433 31.43 55.2518 17.1765 69.828 15.0654C71.883 14.7678 73.5766 16.4792 73.5766 18.5556V19.2404C73.5766 20.9387 72.1919 22.2911 70.5131 22.5475C67.7501 22.9694 65.142 23.9539 62.7766 25.3958Z" fill="url(#paint0_linear_119_315)"/>
<defs>
<linearGradient id="paint0_linear_119_315" x1="41.6079" y1="14.7959" x2="41.6079" y2="72.1487" gradientUnits="userSpaceOnUse">
<stop stop-color="#007480"/>
<stop offset="1" stop-color="#000080"/>
</linearGradient>
</defs>
</svg>
