<svg width="56" height="56" viewBox="0 0 56 56" fill="none" xmlns="http://www.w3.org/2000/svg">
<g clip-path="url(#clip0_197_62)">
<path d="M54.8685 40.959L50.4431 36.5336L46.0177 32.1082L41.5923 27.6828C41.4251 27.5248 41.2037 27.4368 40.9736 27.4368C40.7435 27.4368 40.5222 27.5248 40.3549 27.6828L35.5432 32.4953L34.3667 31.3187L39.1792 26.5062C39.3433 26.3421 39.4354 26.1196 39.4354 25.8876C39.4354 25.6555 39.3433 25.433 39.1792 25.2689L38.418 24.5076L40.5496 20.2443C40.6317 20.08 40.6601 19.8941 40.6306 19.7128C40.6012 19.5315 40.5154 19.3641 40.3856 19.2343L39.194 18.0427L41.7435 15.4935C41.9029 15.3285 41.9911 15.1074 41.9891 14.878C41.9871 14.6486 41.8951 14.4291 41.7328 14.2669C41.5706 14.1047 41.3511 14.0126 41.1217 14.0106C40.8923 14.0086 40.6713 14.0968 40.5062 14.2562L37.9568 16.8055L36.7653 15.614C36.6354 15.4841 36.468 15.3984 36.2867 15.3689C36.1055 15.3395 35.9195 15.3678 35.7552 15.4499L31.4919 17.5816L30.7306 16.8203C30.5666 16.6563 30.344 16.5641 30.112 16.5641C29.8799 16.5641 29.6574 16.6563 29.4933 16.8203L24.6808 21.6328L23.5045 20.4565L28.317 15.6448C28.481 15.4807 28.5732 15.2581 28.5732 15.0261C28.5732 14.7941 28.481 14.5715 28.317 14.4074L23.8916 9.98203L19.4661 5.55663L15.0411 1.13123C14.877 0.967168 14.6545 0.875 14.4224 0.875C14.1904 0.875 13.9679 0.967168 13.8038 1.13123L8.37221 6.56236L2.94187 11.9935C2.77781 12.1576 2.68564 12.3801 2.68564 12.6122C2.68564 12.8442 2.77781 13.0667 2.94187 13.2308L7.36639 17.6562L11.7919 22.0808L16.2173 26.5062C16.3814 26.6703 16.6039 26.7624 16.8359 26.7624C17.0679 26.7624 17.2904 26.6703 17.4545 26.5062L22.267 21.6937L23.4437 22.8703L18.6312 27.6828C18.4672 27.8469 18.375 28.0695 18.375 28.3015C18.375 28.5336 18.4672 28.7561 18.6312 28.9202L19.8232 30.1122L18.1884 31.747C15.4447 30.2918 12.3062 29.7564 9.23524 30.2197C6.1643 30.683 3.32341 32.1206 1.13123 34.3205C0.967168 34.4846 0.875 34.7071 0.875 34.9392C0.875 35.1712 0.967168 35.3938 1.13123 35.5578L5.66111 40.0881L4.76432 48.1478C4.30422 48.2469 3.88156 48.4741 3.54518 48.8033C3.26106 49.0846 3.04614 49.428 2.91734 49.8064C2.78855 50.1849 2.7494 50.5881 2.80298 50.9843C2.85657 51.3804 3.00142 51.7588 3.22612 52.0894C3.45083 52.4201 3.74925 52.694 4.09787 52.8897C4.44649 53.0854 4.83579 53.1974 5.23509 53.217C5.63439 53.2366 6.03279 53.1632 6.39888 53.0025C6.76497 52.8419 7.08877 52.5985 7.34474 52.2914C7.60072 51.9843 7.78189 51.622 7.87398 51.2329L15.9116 50.3386L20.4419 54.8687C20.606 55.0328 20.8285 55.125 21.0605 55.125C21.2926 55.125 21.5151 55.0328 21.6792 54.8687C23.8737 52.674 25.3074 49.8339 25.7698 46.7649C26.2322 43.6958 25.6992 40.5594 24.2488 37.8154L25.8875 36.1767L27.0795 37.3687C27.2436 37.5328 27.4662 37.625 27.6982 37.625C27.9302 37.625 28.1528 37.5328 28.3169 37.3687L33.1294 32.5562L34.306 33.7329L29.4935 38.5454C29.3294 38.7095 29.2373 38.9321 29.2373 39.1641C29.2373 39.3961 29.3294 39.6186 29.4935 39.7827L33.9189 44.2081L38.3435 48.6336L42.7689 53.0581C42.933 53.2222 43.1555 53.3143 43.3876 53.3143C43.6196 53.3143 43.8421 53.2222 44.0062 53.0581L49.4374 47.6275L54.8685 42.1964C55.0325 42.0323 55.1247 41.8098 55.1247 41.5777C55.1247 41.3457 55.0325 41.1231 54.8685 40.959ZM22.267 19.2191L20.673 17.6255L19.079 16.0318L23.2728 11.838L26.4609 15.0261L22.267 19.2191ZM17.8416 14.7945L14.6536 11.6064L18.8474 7.41259L22.0355 10.6007L17.8416 14.7945ZM14.422 2.98719L17.6101 6.17526L13.4162 10.3691L10.2286 7.18098L14.422 2.98719ZM8.99083 8.41832L12.1789 11.6064L7.98511 15.8003L4.79783 12.6122L8.99083 8.41832ZM13.4162 12.8437L16.6043 16.0318L14.5074 18.1284L12.4104 20.2249L9.22236 17.0376L13.4162 12.8437ZM16.8359 24.6503L13.6478 21.4622L15.7447 19.3656L17.8416 17.2691L19.4357 18.8628L21.0297 20.4565L16.8359 24.6503ZM35.974 17.2974L38.7023 20.0257L37.1132 23.203L32.7967 18.8865L35.974 17.2974ZM10.1679 44.5945L6.51432 48.2481L7.24626 41.6729L10.1679 44.5945ZM5.95913 51.2173C5.84278 51.3336 5.69454 51.4129 5.53316 51.4449C5.37178 51.477 5.2045 51.4606 5.05249 51.3976C4.90048 51.3346 4.77055 51.228 4.67914 51.0912C4.58772 50.9544 4.53893 50.7935 4.53893 50.629C4.53893 50.4644 4.58772 50.3036 4.67914 50.1668C4.77055 50.03 4.90048 49.9233 5.05249 49.8604C5.2045 49.7974 5.37178 49.7809 5.53316 49.813C5.69454 49.8451 5.84278 49.9243 5.95913 50.0407C6.11505 50.1968 6.20262 50.4084 6.20261 50.629C6.20259 50.8496 6.11507 51.0612 5.95913 51.2173ZM7.75174 49.4854L11.4053 45.8318L14.3269 48.7535L7.75174 49.4854ZM21.0392 52.9912L3.00767 34.9597C5.44838 32.8303 8.60661 31.7071 11.8438 31.8172C15.081 31.9274 18.1555 33.2626 20.4459 35.5529C22.7363 37.8433 24.0715 40.9179 24.1816 44.1551C24.2917 47.3922 23.1686 50.5505 21.0392 52.9912ZM23.3186 36.2704C23.2846 36.222 23.2444 36.1771 23.2097 36.1289C23.0347 35.886 22.8516 35.6479 22.6605 35.4147C22.5915 35.3304 22.5231 35.2462 22.4521 35.1633C22.2049 34.8746 21.9498 34.5918 21.6789 34.3205C21.4079 34.0492 21.1242 33.7942 20.8356 33.5468C20.753 33.4761 20.6694 33.408 20.5853 33.3393C20.3513 33.1475 20.1125 32.9638 19.8687 32.788C19.8211 32.7538 19.7769 32.7142 19.7287 32.6805L21.06 31.3492L24.6497 34.939L23.3186 36.2704ZM27.6979 35.5125L26.5062 34.3205L21.6792 29.4935L20.4872 28.3015L30.1122 18.6765L30.6969 19.2612L30.7 19.2653L36.7345 25.2997L36.7371 25.3014L37.3233 25.8876L27.6979 35.5125ZM44.3929 41.3461L41.2047 38.1581L45.3986 33.9642L48.5871 37.1524L44.3929 41.3461ZM40.9736 29.5388L44.1617 32.7269L39.9679 36.9207L38.3742 35.3267L36.7807 33.7327L40.9736 29.5388ZM35.5432 34.97L37.137 36.564L38.7306 38.1581L36.6341 40.255L34.5375 42.3519L31.3494 39.1638L35.5432 34.97ZM37.8713 41.4923L39.9679 39.3954L43.156 42.5835L38.9621 46.7774L35.7748 43.5892L37.8713 41.4923ZM43.3875 51.2019L40.1995 48.0146L44.3933 43.8208L47.5814 47.0089L43.3875 51.2019ZM48.8187 45.7715L45.6306 42.5835L49.8245 38.3896L53.0125 41.5778L48.8187 45.7715Z" fill="#000080"/>
</g>
<defs>
<clipPath id="clip0_197_62">
<rect width="56" height="56" fill="white"/>
</clipPath>
</defs>
</svg>
