<svg width="56" height="56" viewBox="0 0 56 56" fill="none" xmlns="http://www.w3.org/2000/svg">
<path d="M28.875 32.375C28.875 32.1429 28.7828 31.9204 28.6187 31.7563C28.4546 31.5922 28.2321 31.5 28 31.5C27.7679 31.5 27.5454 31.5922 27.3813 31.7563C27.2172 31.9204 27.125 32.1429 27.125 32.375V33.3742C26.3759 33.5677 25.7119 34.0039 25.237 34.6146C24.7621 35.2254 24.5029 35.9763 24.5 36.75V38.5C24.5029 39.2737 24.7621 40.0246 25.237 40.6354C25.7119 41.2461 26.3759 41.6823 27.125 41.8758V47.0068C26.8598 46.8544 26.6394 46.635 26.4858 46.3705C26.3323 46.106 26.2509 45.8058 26.25 45.5V43.75C26.25 43.5179 26.1578 43.2954 25.9937 43.1313C25.8296 42.9672 25.6071 42.875 25.375 42.875C25.1429 42.875 24.9204 42.9672 24.7563 43.1313C24.5922 43.2954 24.5 43.5179 24.5 43.75V45.5C24.5029 46.2737 24.7621 47.0246 25.237 47.6354C25.7119 48.2461 26.3759 48.6823 27.125 48.8758V49.875C27.125 50.1071 27.2172 50.3296 27.3813 50.4937C27.5454 50.6578 27.7679 50.75 28 50.75C28.2321 50.75 28.4546 50.6578 28.6187 50.4937C28.7828 50.3296 28.875 50.1071 28.875 49.875V48.8758C29.6241 48.6823 30.2881 48.2461 30.763 47.6354C31.2379 47.0246 31.4971 46.2737 31.5 45.5V43.75C31.4971 42.9763 31.2379 42.2254 30.763 41.6146C30.2881 41.0039 29.6241 40.5677 28.875 40.3742V35.2432C29.1402 35.3956 29.3606 35.615 29.5142 35.8795C29.6677 36.144 29.7491 36.4442 29.75 36.75V38.5C29.75 38.7321 29.8422 38.9546 30.0063 39.1187C30.1704 39.2828 30.3929 39.375 30.625 39.375C30.8571 39.375 31.0796 39.2828 31.2437 39.1187C31.4078 38.9546 31.5 38.7321 31.5 38.5V36.75C31.4971 35.9763 31.2379 35.2254 30.763 34.6146C30.2881 34.0039 29.6241 33.5677 28.875 33.3742V32.375ZM27.125 40.0068C26.8598 39.8544 26.6394 39.635 26.4858 39.3705C26.3323 39.106 26.2509 38.8058 26.25 38.5V36.75C26.2509 36.4442 26.3323 36.144 26.4858 35.8795C26.6394 35.615 26.8598 35.3956 27.125 35.2432V40.0068ZM29.75 43.75V45.5C29.7491 45.8058 29.6677 46.106 29.5142 46.3705C29.3606 46.635 29.1402 46.8544 28.875 47.0068V42.2432C29.1402 42.3956 29.3606 42.615 29.5142 42.8795C29.6677 43.144 29.7491 43.4442 29.75 43.75Z" fill="#000080"/>
<path d="M42.875 15.8743V14.875C42.875 14.6429 42.7828 14.4204 42.6187 14.2563C42.4546 14.0922 42.2321 14 42 14C41.7679 14 41.5454 14.0922 41.3813 14.2563C41.2172 14.4204 41.125 14.6429 41.125 14.875V15.8743C40.3759 16.0677 39.7119 16.5039 39.237 17.1146C38.7621 17.7254 38.5029 18.4763 38.5 19.25V21C38.5029 21.7737 38.7621 22.5246 39.237 23.1354C39.7119 23.7461 40.3759 24.1823 41.125 24.3757V29.5068C40.8598 29.3544 40.6394 29.135 40.4858 28.8705C40.3323 28.606 40.2509 28.3058 40.25 28V26.25C40.25 26.0179 40.1578 25.7954 39.9937 25.6313C39.8296 25.4672 39.6071 25.375 39.375 25.375C39.1429 25.375 38.9204 25.4672 38.7563 25.6313C38.5922 25.7954 38.5 26.0179 38.5 26.25V28C38.5029 28.7737 38.7621 29.5246 39.237 30.1354C39.7119 30.7461 40.3759 31.1823 41.125 31.3758V32.375C41.125 32.6071 41.2172 32.8296 41.3813 32.9937C41.5454 33.1578 41.7679 33.25 42 33.25C42.2321 33.25 42.4546 33.1578 42.6187 32.9937C42.7828 32.8296 42.875 32.6071 42.875 32.375V31.3758C43.6241 31.1823 44.2881 30.7461 44.763 30.1354C45.2379 29.5246 45.4971 28.7737 45.5 28V26.25C45.4971 25.4763 45.2379 24.7254 44.763 24.1146C44.2881 23.5039 43.6241 23.0677 42.875 22.8743V17.7432C43.1402 17.8956 43.3606 18.115 43.5142 18.3795C43.6677 18.644 43.7491 18.9442 43.75 19.25V21C43.75 21.2321 43.8422 21.4546 44.0063 21.6187C44.1704 21.7828 44.3929 21.875 44.625 21.875C44.8571 21.875 45.0796 21.7828 45.2437 21.6187C45.4078 21.4546 45.5 21.2321 45.5 21V19.25C45.4971 18.4763 45.2379 17.7254 44.763 17.1146C44.2881 16.5039 43.6241 16.0677 42.875 15.8743ZM41.125 22.5068C40.8598 22.3544 40.6394 22.135 40.4858 21.8705C40.3323 21.606 40.2509 21.3058 40.25 21V19.25C40.2509 18.9442 40.3323 18.644 40.4858 18.3795C40.6394 18.115 40.8598 17.8956 41.125 17.7432V22.5068ZM43.75 26.25V28C43.7491 28.3058 43.6677 28.606 43.5142 28.8705C43.3606 29.135 43.1402 29.3544 42.875 29.5068V24.7432C43.1402 24.8956 43.3606 25.115 43.5142 25.3795C43.6677 25.644 43.7491 25.9442 43.75 26.25Z" fill="#000080"/>
<path d="M14.875 15.8743V14.875C14.875 14.6429 14.7828 14.4204 14.6187 14.2563C14.4546 14.0922 14.2321 14 14 14C13.7679 14 13.5454 14.0922 13.3813 14.2563C13.2172 14.4204 13.125 14.6429 13.125 14.875V15.8743C12.3759 16.0677 11.7119 16.5039 11.237 17.1146C10.7621 17.7254 10.5029 18.4763 10.5 19.25V21C10.5029 21.7737 10.7621 22.5246 11.237 23.1354C11.7119 23.7461 12.3759 24.1823 13.125 24.3757V29.5068C12.8598 29.3544 12.6394 29.135 12.4858 28.8705C12.3323 28.606 12.2509 28.3058 12.25 28V26.25C12.25 26.0179 12.1578 25.7954 11.9937 25.6313C11.8296 25.4672 11.6071 25.375 11.375 25.375C11.1429 25.375 10.9204 25.4672 10.7563 25.6313C10.5922 25.7954 10.5 26.0179 10.5 26.25V28C10.5029 28.7737 10.7621 29.5246 11.237 30.1354C11.7119 30.7461 12.3759 31.1823 13.125 31.3758V32.375C13.125 32.6071 13.2172 32.8296 13.3813 32.9937C13.5454 33.1578 13.7679 33.25 14 33.25C14.2321 33.25 14.4546 33.1578 14.6187 32.9937C14.7828 32.8296 14.875 32.6071 14.875 32.375V31.3758C15.6241 31.1823 16.2881 30.7461 16.763 30.1354C17.2379 29.5246 17.4971 28.7737 17.5 28V26.25C17.4971 25.4763 17.2379 24.7254 16.763 24.1146C16.2881 23.5039 15.6241 23.0677 14.875 22.8743V17.7432C15.1402 17.8956 15.3606 18.115 15.5142 18.3795C15.6677 18.644 15.7491 18.9442 15.75 19.25V21C15.75 21.2321 15.8422 21.4546 16.0063 21.6187C16.1704 21.7828 16.3929 21.875 16.625 21.875C16.8571 21.875 17.0796 21.7828 17.2437 21.6187C17.4078 21.4546 17.5 21.2321 17.5 21V19.25C17.4971 18.4763 17.2379 17.7254 16.763 17.1146C16.2881 16.5039 15.6241 16.0677 14.875 15.8743ZM13.125 22.5068C12.8598 22.3544 12.6394 22.135 12.4858 21.8705C12.3323 21.606 12.2509 21.3058 12.25 21V19.25C12.2509 18.9442 12.3323 18.644 12.4858 18.3795C12.6394 18.115 12.8598 17.8956 13.125 17.7432V22.5068ZM15.75 26.25V28C15.7491 28.3058 15.6677 28.606 15.5142 28.8705C15.3606 29.135 15.1402 29.3544 14.875 29.5068V24.7432C15.1402 24.8956 15.3606 25.115 15.5142 25.3795C15.6677 25.644 15.7491 25.9442 15.75 26.25Z" fill="#000080"/>
<path d="M45.5633 11.3368L47.7849 5.6633C48.0572 5.18811 48.1717 4.63875 48.1118 4.09436C48.0519 3.54997 47.8207 3.03864 47.4516 2.63405C47.0876 2.2143 46.5971 1.92407 46.054 1.80699C45.5109 1.68991 44.9444 1.7523 44.4398 1.9848L42.3503 2.92017C42.2403 2.96989 42.121 2.99561 42.0003 2.99561C41.8796 2.99561 41.7603 2.96989 41.6503 2.92017L39.5608 1.98567C39.0564 1.75236 38.4898 1.68943 37.9466 1.80639C37.4033 1.92335 36.9128 2.21385 36.5491 2.63405C36.1799 3.03864 35.9488 3.54997 35.8889 4.09436C35.8289 4.63875 35.9434 5.18811 36.2157 5.6633L38.4373 11.3368L33.4804 20.1743C33.4699 20.1629 33.4629 20.1489 33.4516 20.1375C33.0876 19.7178 32.5971 19.4276 32.054 19.3105C31.5109 19.1934 30.9444 19.2558 30.4398 19.4883L28.3503 20.4202C28.2404 20.4701 28.121 20.4959 28.0003 20.4959C27.8796 20.4959 27.7603 20.4701 27.6503 20.4202L25.5599 19.4865C25.0556 19.2529 24.4889 19.1899 23.9456 19.3068C23.4022 19.4238 22.9117 19.7145 22.5482 20.1349C22.5377 20.1463 22.5298 20.1594 22.5202 20.1708L17.5633 11.3368L19.7849 5.6633C20.0572 5.18811 20.1717 4.63875 20.1118 4.09436C20.0519 3.54997 19.8207 3.03864 19.4516 2.63405C19.0876 2.2143 18.5971 1.92407 18.054 1.80699C17.5109 1.68991 16.9444 1.7523 16.4398 1.9848L14.3503 2.92017C14.2403 2.96989 14.121 2.99561 14.0003 2.99561C13.8796 2.99561 13.7603 2.96989 13.6503 2.92017L11.5608 1.98567C11.0564 1.75236 10.4898 1.68943 9.94655 1.80639C9.40326 1.92335 8.91276 2.21385 8.54907 2.63405C8.17994 3.03864 7.94877 3.54997 7.88886 4.09436C7.82895 4.63875 7.94339 5.18811 8.21569 5.6633L10.4373 11.3368L2.78107 24.9719C2.09153 26.1818 1.73454 27.5527 1.74638 28.9452C1.75821 30.3377 2.13844 31.7023 2.84844 32.9003C3.52067 34.0728 4.49117 35.0466 5.66142 35.7228C6.83168 36.399 8.16001 36.7535 9.51157 36.7503H18.4891C19.0309 36.7446 19.5705 36.6815 20.0991 36.5622L16.7793 42.4737C16.091 43.6838 15.735 45.0544 15.7474 46.4465C15.7599 47.8386 16.1403 49.2027 16.8502 50.4003C17.523 51.5729 18.494 52.5467 19.6647 53.2229C20.8353 53.899 22.164 54.2535 23.5159 54.2503H32.4847C33.8366 54.2535 35.1653 53.899 36.336 53.2229C37.5067 52.5467 38.4776 51.5729 39.1504 50.4003C39.8603 49.2027 40.2408 47.8386 40.2532 46.4465C40.2657 45.0544 39.9096 43.6838 39.2213 42.4737L35.9016 36.5622C36.4301 36.6815 36.9698 36.7446 37.5116 36.7503H46.4891C47.8406 36.7534 49.1689 36.3988 50.3391 35.7227C51.5094 35.0465 52.4799 34.0728 53.1522 32.9003C53.8615 31.7029 54.2414 30.3391 54.2533 28.9474C54.2651 27.5557 53.9085 26.1856 53.2196 24.9763L45.5633 11.3368ZM37.8213 4.96417C37.8037 4.91944 37.7826 4.87615 37.7583 4.83467C37.6576 4.67519 37.6127 4.48685 37.6304 4.29909C37.6481 4.11133 37.7276 3.93474 37.8563 3.79692C37.9748 3.65608 38.1367 3.55859 38.3167 3.51979C38.4966 3.48099 38.6843 3.50306 38.8503 3.58255L40.9398 4.51705C41.2745 4.66654 41.6369 4.74381 42.0034 4.74381C42.3699 4.74381 42.7323 4.66654 43.0669 4.51705L45.1503 3.58255C45.3159 3.50393 45.5029 3.48233 45.6821 3.52111C45.8612 3.55989 46.0225 3.65687 46.1408 3.79692C46.2696 3.93474 46.349 4.11133 46.3667 4.29909C46.3845 4.48685 46.3395 4.67519 46.2388 4.83467C46.2145 4.87615 46.1934 4.91944 46.1758 4.96417L44.0128 10.5003H39.9878L37.8213 4.96417ZM23.8563 21.2969C23.9744 21.1566 24.1357 21.0595 24.315 21.0207C24.4942 20.9819 24.6813 21.0036 24.8468 21.0825L26.9363 22.017C27.271 22.1665 27.6334 22.2438 27.9999 22.2438C28.3664 22.2438 28.7288 22.1665 29.0634 22.017L31.1503 21.0825C31.316 21.0041 31.5029 20.9826 31.682 21.0213C31.8611 21.0601 32.0224 21.157 32.1408 21.2969C32.2696 21.4347 32.349 21.6113 32.3667 21.7991C32.3845 21.9869 32.3395 22.1752 32.2388 22.3347C32.2145 22.3761 32.1934 22.4194 32.1758 22.4642L30.0128 28.0003H25.9878L23.8196 22.4642C23.8019 22.4194 23.7809 22.3761 23.7566 22.3347C23.6561 22.175 23.6114 21.9866 23.6295 21.7988C23.6475 21.611 23.7273 21.4345 23.8563 21.2969ZM9.82132 4.96417C9.80369 4.91944 9.78263 4.87615 9.75832 4.83467C9.65765 4.67519 9.61267 4.48685 9.6304 4.29909C9.64813 4.11133 9.72757 3.93474 9.85632 3.79692C9.97481 3.65608 10.1367 3.55859 10.3167 3.51979C10.4966 3.48099 10.6843 3.50306 10.8503 3.58255L12.9398 4.51705C13.2745 4.66654 13.6369 4.74381 14.0034 4.74381C14.3699 4.74381 14.7323 4.66654 15.0669 4.51705L17.1503 3.58255C17.3159 3.50393 17.5029 3.48233 17.6821 3.52111C17.8612 3.55989 18.0225 3.65687 18.1408 3.79692C18.2696 3.93474 18.349 4.11133 18.3667 4.29909C18.3845 4.48685 18.3395 4.67519 18.2388 4.83467C18.2145 4.87615 18.1934 4.91944 18.1758 4.96417L16.0128 10.5003H11.9878L9.82132 4.96417ZM18.4891 35.0003H9.51157C8.46547 35.0013 7.43774 34.7255 6.53272 34.2008C5.62771 33.6761 4.87765 32.9213 4.35869 32.013C3.80517 31.0787 3.50881 30.0146 3.49975 28.9286C3.49068 27.8427 3.76922 26.7737 4.30707 25.8303L11.9309 12.2503H16.0697L22.2664 23.2928L24.4373 28.8377L21.4194 34.2128C20.5302 34.7315 19.5185 35.0034 18.4891 35.0003ZM37.6953 43.3312C38.2326 44.2754 38.5105 45.3449 38.5008 46.4313C38.4911 47.5176 38.1942 48.5821 37.6402 49.5165C37.1204 50.4244 36.3696 51.1786 35.4642 51.7026C34.5588 52.2266 33.5308 52.5018 32.4847 52.5003H23.5159C22.4698 52.5018 21.4419 52.2266 20.5364 51.7026C19.631 51.1786 18.8803 50.4244 18.3604 49.5165C17.8064 48.5821 17.5095 47.5176 17.4998 46.4313C17.4901 45.3449 17.768 44.2754 18.3053 43.3312L25.9327 29.7503H30.0679L37.6953 43.3312ZM51.6419 32.013C51.123 32.9213 50.3729 33.6761 49.4679 34.2008C48.5629 34.7255 47.5352 35.0013 46.4891 35.0003H37.5116C36.4821 35.0034 35.4705 34.7315 34.5812 34.2128L31.5633 28.8385L33.7342 23.2937L39.9309 12.2503H44.0697L51.6944 25.8312C52.2319 26.7746 52.5102 27.8434 52.5009 28.9292C52.4917 30.0149 52.1954 31.0789 51.6419 32.013Z" fill="#000080"/>
</svg>
