<svg width="56" height="56" viewBox="0 0 56 56" fill="none" xmlns="http://www.w3.org/2000/svg">
<path d="M46.9339 43.8897H45.8956V42.1863C45.8956 41.8089 45.7456 41.4468 45.4787 41.1799C45.2118 40.913 44.8497 40.763 44.4722 40.763H42.1389V24.0213H42.3372C42.5251 24.0229 42.7115 23.9872 42.8855 23.9164C43.0595 23.8455 43.2178 23.7409 43.3512 23.6086C43.4846 23.4763 43.5905 23.3189 43.6628 23.1454C43.735 22.972 43.7722 22.7859 43.7722 22.598V20.9997C43.7529 20.8665 43.6862 20.7448 43.5844 20.6568C43.4827 20.5687 43.3526 20.5203 43.2181 20.5203C43.0835 20.5203 42.9535 20.5687 42.8517 20.6568C42.7499 20.7448 42.6833 20.8665 42.6639 20.9997V22.6097C42.661 22.6954 42.6256 22.7768 42.565 22.8374C42.5044 22.8981 42.423 22.9334 42.3372 22.9363H36.5039C36.417 22.9336 36.3342 22.8987 36.2717 22.8383C36.2092 22.7779 36.1713 22.6964 36.1656 22.6097V20.9997C36.1672 20.9272 36.1541 20.8552 36.1271 20.788C36.1001 20.7207 36.0598 20.6596 36.0085 20.6084C35.9573 20.5572 35.8962 20.5168 35.8289 20.4898C35.7617 20.4628 35.6897 20.4498 35.6172 20.4513C35.5392 20.4393 35.4595 20.4446 35.3838 20.4669C35.3081 20.4891 35.2382 20.5278 35.1792 20.5802C35.1201 20.6325 35.0734 20.6973 35.0422 20.7698C35.0111 20.8423 34.9963 20.9208 34.9989 20.9997V22.6097C35.002 22.9882 35.1545 23.3502 35.4233 23.6168C35.6921 23.8834 36.0553 24.033 36.4339 24.033H36.6322V40.833H30.6822V24.0447H30.8806C31.2591 24.0447 31.6224 23.8951 31.8912 23.6285C32.16 23.3619 32.3125 22.9999 32.3156 22.6213V20.9997C32.2962 20.8665 32.2295 20.7448 32.1278 20.6568C32.026 20.5687 31.896 20.5203 31.7614 20.5203C31.6269 20.5203 31.4968 20.5687 31.395 20.6568C31.2933 20.7448 31.2266 20.8665 31.2072 20.9997V22.6097C31.2043 22.6954 31.169 22.7768 31.1083 22.8374C31.0477 22.8981 30.9663 22.9334 30.8806 22.9363H25.0472C24.9615 22.9334 24.8801 22.8981 24.8195 22.8374C24.7588 22.7768 24.7235 22.6954 24.7206 22.6097V20.9997C24.7012 20.8665 24.6345 20.7448 24.5328 20.6568C24.431 20.5687 24.301 20.5203 24.1664 20.5203C24.0319 20.5203 23.9018 20.5687 23.8 20.6568C23.6983 20.7448 23.6316 20.8665 23.6122 20.9997V22.6097C23.6153 22.9882 23.7679 23.3502 24.0366 23.6168C24.3054 23.8834 24.6687 24.033 25.0472 24.033H25.2456V40.833H19.2956V24.0447H19.4939C19.6872 24.0541 19.8804 24.0244 20.0619 23.9572C20.2433 23.8901 20.4094 23.7869 20.55 23.654C20.6905 23.521 20.8028 23.361 20.8799 23.1835C20.9571 23.0061 20.9976 22.8148 20.9989 22.6213V20.9997C21.0005 20.9272 20.9874 20.8552 20.9604 20.788C20.9334 20.7207 20.8931 20.6596 20.8418 20.6084C20.7906 20.5572 20.7295 20.5168 20.6623 20.4898C20.595 20.4628 20.523 20.4498 20.4506 20.4513C20.3726 20.4393 20.2929 20.4446 20.2172 20.4669C20.1415 20.4891 20.0716 20.5278 20.0125 20.5802C19.9535 20.6325 19.9067 20.6973 19.8755 20.7698C19.8444 20.8423 19.8296 20.9208 19.8322 20.9997V22.6097C19.8265 22.6964 19.7887 22.7779 19.7261 22.8383C19.6636 22.8987 19.5808 22.9336 19.4939 22.9363H13.6606C13.5749 22.9334 13.4935 22.8981 13.4328 22.8374C13.3722 22.7768 13.3368 22.6954 13.3339 22.6097V20.9997C13.3355 20.9272 13.3224 20.8552 13.2954 20.788C13.2684 20.7207 13.2281 20.6596 13.1769 20.6084C13.1256 20.5572 13.0645 20.5168 12.9973 20.4898C12.93 20.4628 12.858 20.4498 12.7856 20.4513C12.7136 20.4497 12.6421 20.4628 12.5755 20.4899C12.5089 20.517 12.4485 20.5576 12.3982 20.609C12.3479 20.6604 12.3086 20.7216 12.283 20.7888C12.2573 20.856 12.2457 20.9278 12.2489 20.9997V22.6097C12.252 22.9882 12.4045 23.3502 12.6733 23.6168C12.9421 23.8834 13.3053 24.033 13.6839 24.033H13.8822V40.833H11.5256C11.3382 40.8315 11.1524 40.8672 10.9791 40.9382C10.8057 41.0092 10.6481 41.1139 10.5157 41.2464C10.3832 41.3789 10.2784 41.5364 10.2074 41.7098C10.1364 41.8832 10.1007 42.069 10.1022 42.2563V43.9363H9.06391C8.68533 43.9363 8.32209 44.0859 8.05331 44.3525C7.78453 44.6191 7.63198 44.9811 7.62891 45.3597V46.9697C7.62891 47.3503 7.78009 47.7153 8.04921 47.9844C8.31832 48.2535 8.68332 48.4047 9.06391 48.4047H46.9339C47.3145 48.4047 47.6795 48.2535 47.9486 47.9844C48.2177 47.7153 48.3689 47.3503 48.3689 46.9697V45.313C48.3658 44.9344 48.2133 44.5724 47.9445 44.3058C47.6757 44.0392 47.3125 43.8897 46.9339 43.8897ZM37.7522 24.0563H40.9722V40.833H37.7522V24.0563ZM26.3889 24.0563H29.6089V40.833H26.3889V24.0447V24.0563ZM15.0256 24.0563H18.2456V40.833H15.0256V24.0447V24.0563ZM11.1989 42.2097C11.2018 42.124 11.2372 42.0426 11.2978 41.9819C11.3585 41.9213 11.4399 41.8859 11.5256 41.883H44.4722C44.5579 41.8859 44.6394 41.9213 44.7 41.9819C44.7606 42.0426 44.796 42.124 44.7989 42.2097V43.913H11.1989V42.2097ZM47.2722 46.8763C47.2693 46.9651 47.2327 47.0495 47.1699 47.1124C47.1071 47.1752 47.0227 47.2118 46.9339 47.2147H9.06391C8.9751 47.2118 8.89073 47.1752 8.8279 47.1124C8.76507 47.0495 8.72849 46.9651 8.72557 46.8763V45.313C8.73133 45.2263 8.76916 45.1448 8.8317 45.0844C8.89424 45.024 8.97701 44.9891 9.06391 44.9863H46.9339C47.0208 44.9891 47.1036 45.024 47.1661 45.0844C47.2287 45.1448 47.2665 45.2263 47.2722 45.313V46.923V46.8763ZM27.8939 18.6663C28.6448 18.6663 29.3788 18.4433 30.0028 18.0257C30.6269 17.608 31.1128 17.0144 31.3991 16.3202C31.6854 15.626 31.7591 14.8625 31.6109 14.1263C31.4627 13.3902 31.0993 12.7146 30.5667 12.1853C30.034 11.656 29.3563 11.2967 28.6192 11.153C27.8822 11.0094 27.1191 11.0878 26.4267 11.3784C25.7342 11.6689 25.1437 12.1586 24.7299 12.7852C24.3161 13.4118 24.0976 14.1471 24.1022 14.898C24.1038 15.3944 24.2031 15.8856 24.3944 16.3437C24.5858 16.8017 24.8655 17.2175 25.2176 17.5675C25.5697 17.9174 25.9873 18.1945 26.4465 18.3831C26.9057 18.5716 27.3975 18.6679 27.8939 18.6663ZM27.8939 12.2147C28.4241 12.217 28.9418 12.3763 29.3815 12.6726C29.8212 12.9688 30.1633 13.3887 30.3647 13.8792C30.566 14.3697 30.6174 14.9089 30.5126 15.4286C30.4077 15.9484 30.1513 16.4254 29.7755 16.7995C29.3998 17.1736 28.9216 17.428 28.4015 17.5306C27.8813 17.6332 27.3423 17.5794 26.8527 17.376C26.3631 17.1725 25.9447 16.8286 25.6503 16.3876C25.356 15.9466 25.1989 15.4282 25.1989 14.898C25.1958 14.5421 25.2633 14.1892 25.3973 13.8595C25.5314 13.5298 25.7294 13.23 25.98 12.9773C26.2305 12.7245 26.5287 12.5239 26.8572 12.387C27.1857 12.2501 27.538 12.1797 27.8939 12.1797V12.2147Z" fill="#000080"/>
<path d="M46.8756 15.5865L30.2039 8.16648C29.4858 7.86326 28.7142 7.70703 27.9347 7.70703C27.1552 7.70703 26.3837 7.86326 25.6656 8.16648L9.14557 15.5865C8.63858 15.7564 8.20813 16.1004 7.93052 16.5574C7.6529 17.0144 7.54605 17.5549 7.6289 18.0831V20.1248C7.6289 20.5054 7.78009 20.8704 8.0492 21.1395C8.31832 21.4086 8.68331 21.5598 9.0639 21.5598H46.9339C47.3145 21.5598 47.6795 21.4086 47.9486 21.1395C48.2177 20.8704 48.3689 20.5054 48.3689 20.1248V18.0831C48.4395 17.5594 48.3303 17.0272 48.059 16.5736C47.7877 16.12 47.3704 15.772 46.8756 15.5865ZM9.54223 16.6015L26.0389 9.12314C26.6261 8.86784 27.2595 8.73609 27.8997 8.73609C28.54 8.73609 29.1734 8.86784 29.7606 9.12314L46.4322 16.6015C47.2606 16.9515 47.2606 17.3481 47.2606 18.1065V20.1481C47.2577 20.2339 47.2223 20.3153 47.1617 20.3759C47.101 20.4366 47.0196 20.4719 46.9339 20.4748H9.0639C8.97701 20.4721 8.89423 20.4372 8.83169 20.3768C8.76915 20.3164 8.73132 20.2349 8.72557 20.1481V18.0831C8.72557 17.3481 8.72557 16.9398 9.56557 16.6015H9.54223Z" fill="#000080"/>
</svg>
