<svg width="56" height="56" viewBox="0 0 56 56" fill="none" xmlns="http://www.w3.org/2000/svg">
<path d="M12.3912 36.8912C13.282 36.0004 14.4902 35.5 15.75 35.5H26.25C27.5098 35.5 28.718 36.0004 29.6088 36.8912C30.4996 37.782 31 38.9902 31 40.25V43.25H28.5V40.25C28.5 39.6533 28.2629 39.081 27.841 38.659C27.419 38.2371 26.8467 38 26.25 38H15.75C15.1533 38 14.581 38.2371 14.159 38.659C13.7371 39.081 13.5 39.6533 13.5 40.25V43.25H11V40.25C11 38.9902 11.5004 37.782 12.3912 36.8912ZM24.6112 31.6546C23.5423 32.3688 22.2856 32.75 21 32.75C19.2761 32.75 17.6228 32.0652 16.4038 30.8462C15.1848 29.6272 14.5 27.9739 14.5 26.25C14.5 24.9644 14.8812 23.7077 15.5954 22.6388C16.3097 21.5699 17.3248 20.7368 18.5126 20.2448C19.7003 19.7528 21.0072 19.6241 22.2681 19.8749C23.529 20.1257 24.6872 20.7448 25.5962 21.6538C26.5052 22.5629 27.1243 23.721 27.3751 24.9819C27.6259 26.2428 27.4972 27.5497 27.0052 28.7374C26.5132 29.9252 25.6801 30.9403 24.6112 31.6546ZM23.2223 22.9241C22.5645 22.4846 21.7911 22.25 21 22.25C19.9391 22.25 18.9217 22.6714 18.1716 23.4216C17.4214 24.1717 17 25.1891 17 26.25C17 27.0411 17.2346 27.8145 17.6741 28.4723C18.1136 29.1301 18.7384 29.6428 19.4693 29.9455C20.2002 30.2483 21.0044 30.3275 21.7804 30.1731C22.5563 30.0188 23.269 29.6378 23.8284 29.0784C24.3878 28.519 24.7688 27.8063 24.9231 27.0304C25.0775 26.2544 24.9983 25.4502 24.6955 24.7193C24.3928 23.9884 23.8801 23.3637 23.2223 22.9241Z" fill="#000080" stroke="white"/>
<path d="M49 49.5H49.5V49V33.75H52V49C52 49.7956 51.6839 50.5587 51.1213 51.1213C50.5587 51.6839 49.7956 52 49 52H7C6.20435 52 5.44129 51.6839 4.87868 51.1213C4.31607 50.5587 4 49.7957 4 49V14C4 13.2044 4.31607 12.4413 4.87868 11.8787C5.44129 11.3161 6.20435 11 7 11H27.5V13.5H7H6.5V14V49V49.5H7H49Z" fill="#000080" stroke="white"/>
<path d="M36.8113 10.5787L34.5574 8.32475L36.3247 6.55736L38.5787 8.8113L38.8685 9.10113L39.2096 8.87379C40.0867 8.28911 41.0684 7.87918 42.1009 7.66646L42.5 7.58424V7.17675V4H45V7.17675V7.58424L45.3991 7.66646C46.4316 7.87918 47.4133 8.28911 48.2904 8.87379L48.6315 9.10113L48.9213 8.8113L51.1753 6.55736L52.9426 8.32475L50.6887 10.5787L50.3989 10.8685L50.6262 11.2096C51.2109 12.0867 51.6208 13.0684 51.8335 14.1009L51.9158 14.5H52.3232H55.5V17H52.3232H51.9158L51.8335 17.3991C51.6208 18.4316 51.2109 19.4133 50.6262 20.2904L50.3989 20.6315L50.6887 20.9213L52.9426 23.1753L51.1753 24.9426L48.9213 22.6887L48.6315 22.3989L48.2904 22.6262C47.4133 23.2109 46.4316 23.6208 45.3991 23.8335L45 23.9158V24.3232V27.5H42.5V24.3232V23.9158L42.1009 23.8335C41.0684 23.6208 40.0867 23.2109 39.2096 22.6262L38.8685 22.3989L38.5787 22.6887L36.3247 24.9426L34.5574 23.1753L36.8113 20.9213L37.1011 20.6315L36.8738 20.2904C36.2891 19.4133 35.8792 18.4316 35.6665 17.3991L35.5842 17H35.1767H32V14.5H35.1767H35.5842L35.6665 14.1009C35.8792 13.0684 36.2891 12.0867 36.8738 11.2096L37.1011 10.8685L36.8113 10.5787ZM43.75 21.5H43.7505C45.2749 21.4985 46.7364 20.8922 47.8143 19.8143C48.8922 18.7364 49.4985 17.2749 49.5 15.7505V15.75C49.5 14.6128 49.1628 13.5011 48.531 12.5555C47.8991 11.6099 47.0011 10.8729 45.9504 10.4377C44.8998 10.0025 43.7436 9.88862 42.6282 10.1105C41.5128 10.3324 40.4883 10.88 39.6841 11.6841C38.88 12.4883 38.3323 13.5128 38.1105 14.6282C37.8886 15.7436 38.0025 16.8998 38.4377 17.9504C38.8729 19.0011 39.6099 19.8991 40.5555 20.531C41.5011 21.1628 42.6128 21.5 43.75 21.5ZM35.5 33.75H45V36.25H35.5V33.75ZM45 40.75V43.25H39V40.75H45Z" fill="#000080" stroke="white"/>
</svg>
