<svg width="45" height="45" viewBox="0 0 45 45" fill="none" xmlns="http://www.w3.org/2000/svg">
<path d="M39.125 19.6875V19.9375H39.375H40.7812C41.0879 19.9375 41.382 20.0593 41.5988 20.2762C41.8157 20.493 41.9375 20.7871 41.9375 21.0938V26.7184C41.9355 28.281 41.3947 29.7952 40.4065 31.0055C39.4182 32.2159 38.0428 33.0486 36.5122 33.3631L36.3125 33.4041V33.608V37.9685C36.3114 39.0208 35.893 40.0297 35.1488 40.7738C34.4047 41.518 33.3958 41.9364 32.3435 41.9375H7.03125C5.97867 41.9375 4.9692 41.5194 4.22492 40.7751C3.48063 40.0308 3.0625 39.0213 3.0625 37.9688C3.0625 36.9162 3.48063 35.9067 4.22492 35.1624C4.9692 34.4181 5.97867 34 7.03125 34H14.0625C14.5018 34 14.923 33.8255 15.2336 33.5149C15.5443 33.2043 15.7188 32.783 15.7188 32.3438C15.7188 31.9045 15.5443 31.4832 15.2336 31.1726C14.923 30.862 14.5018 30.6875 14.0625 30.6875H7.03125C5.97867 30.6875 4.96921 30.2694 4.22492 29.5251C3.48064 28.7808 3.0625 27.7713 3.0625 26.7188C3.0625 25.6662 3.48064 24.6567 4.22492 23.9124C4.96921 23.1681 5.97867 22.75 7.03125 22.75H14.0625C14.5018 22.75 14.923 22.5755 15.2336 22.2649C15.5443 21.9543 15.7188 21.533 15.7188 21.0938V15.4688V15.2188H15.4688H14.0628C11.892 15.2162 9.8109 14.3528 8.27594 12.8178C6.74103 11.2829 5.87758 9.20185 5.875 7.03116C5.875 7.03109 5.875 7.03103 5.875 7.03096L5.875 3.0625H9.84365C11.3082 3.06381 12.7457 3.45768 14.0063 4.20309C15.2671 4.94853 16.3049 6.01828 17.0118 7.30098L17.1689 7.58589L17.4037 7.36082C18.3969 6.40923 19.7185 5.87707 21.094 5.875C21.094 5.875 21.0941 5.875 21.0941 5.875L25.0625 5.875V9.84344C25.0607 11.2685 24.4938 12.6347 23.4861 13.6424C22.4785 14.6501 21.1123 15.217 19.6872 15.2188H18.2812H18.0312V15.4688V21.0935C18.0302 22.1458 17.6117 23.1547 16.8676 23.8988C16.1235 24.643 15.1146 25.0614 14.0623 25.0625H7.03125C6.59199 25.0625 6.17071 25.237 5.8601 25.5476C5.5495 25.8582 5.375 26.2795 5.375 26.7188C5.375 27.158 5.5495 27.5793 5.8601 27.8899C6.17071 28.2005 6.59199 28.375 7.03125 28.375H14.0625C15.1151 28.375 16.1245 28.7931 16.8688 29.5374C17.6131 30.2817 18.0312 31.2912 18.0312 32.3438C18.0312 33.3963 17.6131 34.4058 16.8688 35.1501C16.1245 35.8944 15.1151 36.3125 14.0625 36.3125H7.03125C6.59199 36.3125 6.17071 36.487 5.86011 36.7976C5.5495 37.1082 5.375 37.5295 5.375 37.9688C5.375 38.408 5.5495 38.8293 5.8601 39.1399C6.17071 39.4505 6.59199 39.625 7.03125 39.625H32.3438C32.783 39.625 33.2043 39.4505 33.5149 39.1399C33.8255 38.8293 34 38.408 34 37.9688V33.608V33.4041L33.8003 33.3631C32.2697 33.0486 30.8943 32.2159 29.906 31.0055C28.9178 29.7952 28.377 28.281 28.375 26.7184V21.0938C28.375 20.7871 28.4968 20.493 28.7137 20.2762C28.9305 20.0593 29.2246 19.9375 29.5312 19.9375H30.9375H31.1875V19.6875V14.3125H33.5V19.6875V19.9375H33.75H36.5625H36.8125V19.6875V14.3125H39.125V19.6875ZM18.0312 11.2498V11.25V12.6562V12.9062H18.2812H19.6875H19.6877C20.4997 12.9054 21.2781 12.5825 21.8522 12.0084C22.4263 11.4343 22.7492 10.6559 22.75 9.844V9.84375V8.4375V8.1875H22.5H21.0938H21.0935C20.2816 8.18831 19.5032 8.5112 18.9291 9.08531C18.355 9.65942 18.0321 10.4378 18.0312 11.2498ZM14.0622 12.9062H14.0625H15.4688H15.7188V12.6562V11.25V11.2497C15.7168 9.69222 15.0972 8.1991 13.9959 7.0978C12.8946 5.99651 11.4015 5.37694 9.84406 5.375H9.84375H8.4375H8.1875V5.625V7.03125V7.03156C8.18944 8.58903 8.80901 10.0822 9.9103 11.1834C11.0116 12.2847 12.5047 12.9043 14.0622 12.9062ZM30.9375 22.25H30.6875V22.5V26.7188C30.6875 27.9039 31.1583 29.0406 31.9964 29.8786C32.8344 30.7167 33.9711 31.1875 35.1562 31.1875C36.3414 31.1875 37.4781 30.7167 38.3161 29.8786C39.1542 29.0406 39.625 27.9039 39.625 26.7188V22.5V22.25H39.375H30.9375Z" fill="#000080" stroke="white" stroke-width="0.5"/>
</svg>
