<svg width="56" height="56" viewBox="0 0 56 56" fill="none" xmlns="http://www.w3.org/2000/svg">
<path d="M49.9963 45.1416H44.4949C44.3889 45.1503 44.2835 45.1179 44.2006 45.0511C44.1178 44.9843 44.0638 44.8882 44.0498 44.7827C44.0229 44.4489 44.0615 44.1446 44.4949 44.1274H46.2883C46.5717 44.1295 46.8527 44.0756 47.1151 43.9686C47.3775 43.8616 47.6162 43.7038 47.8173 43.5042C48.0184 43.3045 48.1781 43.0671 48.287 42.8055C48.396 42.5438 48.452 42.2633 48.452 41.9799C48.452 41.6965 48.3959 41.4159 48.287 41.1543C48.1781 40.8927 48.0184 40.6552 47.8173 40.4556C47.6161 40.256 47.3775 40.0981 47.115 39.9912C46.8526 39.8842 46.5716 39.8303 46.2882 39.8324H33.7066V32.3229C41.5746 34.1097 50.3124 26.6991 45.8995 18.9809L37.1224 3.93704C37.0456 3.80491 36.9353 3.69528 36.8028 3.61912C36.6702 3.54295 36.52 3.50293 36.3672 3.50304C35.879 3.50143 35.2308 3.4172 34.9617 3.93709L32.3383 8.43363H24.9867V5.11604C24.9867 5.00114 24.9641 4.88736 24.9202 4.7812C24.8762 4.67504 24.8118 4.57858 24.7305 4.49733C24.6493 4.41609 24.5528 4.35164 24.4466 4.30769C24.3405 4.26373 24.2267 4.24112 24.1118 4.24115H15.2586C15.1437 4.24112 15.0299 4.26373 14.9238 4.30769C14.8176 4.35164 14.7212 4.41609 14.6399 4.49733C14.5587 4.57858 14.4942 4.67504 14.4503 4.7812C14.4063 4.88736 14.3837 5.00114 14.3837 5.11604V8.43363H6.02267C5.43465 8.43436 4.87092 8.66828 4.45513 9.08407C4.03933 9.49987 3.80542 10.0636 3.80469 10.6516V11.4001C3.80605 11.9251 3.99371 12.4325 4.33426 12.8321C4.67481 13.2316 5.14613 13.4973 5.66427 13.5818V21.7313C5.66628 27.2317 5.66282 42.0352 5.66427 47.3317C5.14518 47.4215 4.67438 47.6915 4.33465 48.0941C3.99493 48.4968 3.80803 49.0063 3.80683 49.5331V50.2388C3.8075 50.8329 4.04377 51.4025 4.46381 51.8226C4.88385 52.2427 5.45338 52.4791 6.04746 52.4799H32.3762C32.4041 52.4871 32.4324 52.4928 32.4609 52.497H39.3789C39.9505 52.5065 40.5027 52.289 40.9142 51.8921C41.3258 51.4953 41.5633 50.9515 41.5746 50.3798C41.5876 50.2738 41.6415 50.177 41.7248 50.1102C41.8081 50.0433 41.9143 50.0116 42.0206 50.0219H49.9963C50.569 50.0327 51.1227 49.816 51.5359 49.4193C51.9491 49.0226 52.1882 48.4782 52.2007 47.9055C52.2743 47.5746 52.2729 47.2313 52.1966 46.9009C52.1202 46.5706 51.9709 46.2615 51.7595 45.9964C51.5481 45.7313 51.28 45.5169 50.9749 45.369C50.6698 45.2211 50.3354 45.1434 49.9963 45.1416ZM26.185 18.9811C25.8418 19.5721 25.5696 20.2016 25.3739 20.8564H7.41405V13.6181H29.3137L26.185 18.9811ZM7.41405 47.2929V40.0477H31.9568C31.9872 40.1946 31.9349 46.8916 31.9569 47.293L7.41405 47.2929ZM31.9568 38.2979H7.41405V22.6062H25.0574C24.7091 26.8406 27.9213 30.5762 31.9568 31.8749L31.9568 38.2979ZM36.0425 5.55691L44.389 19.8628C47.5668 25.3896 42.0185 31.0122 36.0424 30.8056C30.0679 31.0129 24.5155 25.3887 27.6964 19.8626L36.0425 5.55691ZM16.1335 5.99091H23.2369V8.43363H16.1335V5.99091ZM5.55448 10.6516C5.55382 10.59 5.56548 10.5288 5.58877 10.4717C5.61207 10.4146 5.64653 10.3627 5.69014 10.3191C5.73374 10.2755 5.78562 10.241 5.84272 10.2177C5.89983 10.1944 5.961 10.1828 6.02267 10.1834H31.3175L30.3345 11.8683H6.02267C5.3991 11.8647 5.57627 11.0481 5.55448 10.6516ZM5.55661 50.2388C5.57668 49.8255 5.40902 49.0534 6.04749 49.0427H6.53067C6.52663 49.0472 32.8312 49.043 32.8317 49.0445C32.8388 49.0396 33.3145 49.0444 33.323 49.0427C33.952 49.0516 33.8003 49.8243 33.8133 50.2388C33.8134 50.369 33.7617 50.4938 33.6698 50.5859C33.5779 50.6781 33.4531 50.7299 33.323 50.7301H6.04746C5.91726 50.7299 5.79246 50.6781 5.70043 50.586C5.60841 50.4939 5.55668 50.369 5.55661 50.2388ZM50.4509 47.9055C50.4379 48.0138 50.3831 48.1128 50.2982 48.1813C50.2133 48.2497 50.1049 48.2823 49.9963 48.272H42.0206C41.4502 48.2613 40.8988 48.4772 40.4872 48.8722C40.0756 49.2673 39.8374 49.8095 39.8248 50.3798C39.8133 50.4873 39.7602 50.5859 39.6768 50.6546C39.5934 50.7232 39.4865 50.7565 39.3789 50.7472H35.4997C35.5621 50.3457 35.5833 49.939 35.5631 49.5332C35.562 49.0065 35.3752 48.497 35.0357 48.0944C34.6961 47.6918 34.2255 47.4217 33.7066 47.3317V41.5822H46.2883C46.343 41.5781 46.398 41.5854 46.4497 41.6035C46.5015 41.6217 46.549 41.6503 46.5892 41.6876C46.6294 41.7249 46.6615 41.7702 46.6834 41.8205C46.7054 41.8708 46.7167 41.925 46.7167 41.9799C46.7167 42.0348 46.7054 42.089 46.6834 42.1393C46.6615 42.1896 46.6294 42.2348 46.5892 42.2722C46.549 42.3095 46.5015 42.3381 46.4497 42.3563C46.398 42.3744 46.343 42.3817 46.2883 42.3776H44.4949C43.9246 42.3669 43.3733 42.5828 42.9619 42.9779C42.5504 43.373 42.3124 43.9151 42.3 44.4854C42.2682 44.7913 42.3014 45.1005 42.3976 45.3927C42.4938 45.6848 42.6506 45.9534 42.8579 46.1806C43.0652 46.4078 43.3183 46.5886 43.6004 46.7111C43.8825 46.8336 44.1874 46.895 44.4949 46.8913H49.9963C50.6037 46.8934 50.4287 47.5273 50.4509 47.9055Z" fill="#000080"/>
</svg>
