<svg width="56" height="56" viewBox="0 0 56 56" fill="none" xmlns="http://www.w3.org/2000/svg">
<g clip-path="url(#clip0_119_233)">
<path d="M49.6261 34.3749L49.617 34.3839L49.5293 34.267C48.8239 34.655 48.0378 34.85 47.168 34.85C46.387 34.85 45.6714 34.6904 45.0187 34.3729L44.9222 34.3259L44.8466 34.4022L41.8934 37.3827L41.85 37.4266V37.4883V41.85H38.65V36.0742L42.5705 32.1807L42.6429 32.1088L42.6027 32.0151L42.5207 31.8237L42.5198 31.8216L35.6565 16.4545L35.5661 16.252L35.4118 16.4112L24.2556 27.923L24.2055 27.9746L24.2144 28.0459C24.2506 28.335 24.2776 28.6146 24.2956 28.885C24.3138 29.1567 24.3319 29.4465 24.35 29.7544V52.5V52.65H24.5H27.85V55.85H0.15V52.65H3.5H3.65V52.5V29.75C3.65 28.3835 3.90162 27.0999 4.40403 25.8977C4.90786 24.6921 5.59117 23.6224 6.45397 22.6877C7.31579 21.754 8.3395 20.9995 9.52638 20.424C10.7114 19.8495 11.9867 19.5169 13.3536 19.427L13.4112 19.4232L13.4514 19.3818L30.0764 2.23724L30.0776 2.23597C30.7196 1.55838 31.4678 1.0418 32.3233 0.685337C33.18 0.32837 34.0719 0.15 35 0.15C35.6235 0.15 36.2477 0.239049 36.8729 0.417666C37.4969 0.595962 38.0947 0.863532 38.6666 1.22095C39.2399 1.5793 39.7498 1.99086 40.1966 2.45553C40.6398 2.91645 40.9946 3.44851 41.2612 4.05273L41.2615 4.05346L51.7615 27.5144L51.7617 27.5147C51.921 27.8688 52.0359 28.2313 52.1066 28.6023C52.1777 28.976 52.2133 29.3494 52.2133 29.7227C52.2133 30.1497 52.1688 30.5674 52.08 30.9759C51.9921 31.3804 51.8424 31.7771 51.63 32.1665L51.8678 32.3443L51.9808 32.2313L55.85 36.0742V41.85H52.65V37.4883V37.4266L52.6065 37.3827L49.6261 34.3749ZM21 52.65H21.15V52.5V29.75C21.15 28.7645 20.9639 27.8416 20.5907 26.9832C20.2189 26.128 19.7074 25.3654 19.0568 24.6962C18.4046 24.0254 17.6493 23.5125 16.7916 23.1582C15.9344 22.8042 15.0043 22.6186 14.0028 22.6L14.0028 22.6H14C13.0145 22.6 12.0916 22.7861 11.2332 23.1593C10.378 23.5311 9.61544 24.0426 8.94622 24.6932C8.27543 25.3454 7.76247 26.1007 7.40824 26.9584C7.05415 27.8156 6.86857 28.7457 6.85003 29.7472H6.85V29.75V52.5V52.65H7H21ZM17.5018 19.7744L17.3414 19.9395L17.5572 20.0195C18.6717 20.433 19.6871 21.0171 20.6039 21.772C21.5202 22.5267 22.2836 23.4158 22.8946 24.4401L22.9948 24.6081L23.1311 24.4678L37.6233 9.53808L37.6245 9.53676C38.3064 8.817 38.65 7.96918 38.65 7C38.65 6.48883 38.5552 6.01256 38.3641 5.573C38.1747 5.13723 37.9181 4.75677 37.5943 4.433C37.2707 4.10931 36.8818 3.8443 36.4297 3.63708C35.972 3.42731 35.4939 3.33134 34.9971 3.35C33.9561 3.35068 33.0791 3.72202 32.3763 4.46237C32.3761 4.46264 32.3758 4.4629 32.3756 4.46317L17.5018 19.7744ZM40.8518 10.9584L40.7366 10.7001L40.5874 10.9404C40.2667 11.4572 39.8744 11.9299 39.41 12.3585C38.9338 12.798 38.476 13.2468 38.0363 13.7047L37.9664 13.7776L38.0076 13.8698L43.3943 25.9284L43.4545 26.0631L43.5902 26.0051L46.7894 24.6379L46.9296 24.578L46.8674 24.4389L40.8518 10.9584ZM48.2865 27.6321L48.2233 27.5058L48.0934 27.5613L44.8942 28.9285L44.7594 28.9861L44.8139 29.1221C44.9228 29.3945 45.0318 29.676 45.1408 29.9667C45.2542 30.269 45.3964 30.5445 45.5681 30.7924C45.7419 31.0434 45.9465 31.2488 46.1824 31.4061C46.4347 31.5742 46.7684 31.65 47.168 31.65C47.7328 31.65 48.1952 31.4632 48.5376 31.0805C48.8736 30.7049 49.0406 30.2494 49.0406 29.7227C49.0406 29.3346 48.9531 28.9653 48.7787 28.6165L48.7777 28.6146L48.7768 28.6127L48.7758 28.6107L48.7748 28.6088L48.7739 28.6069L48.7729 28.605L48.772 28.6031L48.771 28.6011L48.77 28.5992L48.7691 28.5973L48.7681 28.5954L48.7672 28.5934L48.7662 28.5915L48.7652 28.5896L48.7643 28.5877L48.7633 28.5858L48.7624 28.5838L48.7614 28.5819L48.7604 28.58L48.7595 28.5781L48.7585 28.5761L48.7575 28.5742L48.7566 28.5723L48.7556 28.5704L48.7547 28.5684L48.7537 28.5665L48.7527 28.5646L48.7518 28.5627L48.7508 28.5608L48.7499 28.5588L48.7489 28.5569L48.7479 28.555L48.747 28.5531L48.746 28.5511L48.745 28.5492L48.7441 28.5473L48.7431 28.5454L48.7422 28.5435L48.7412 28.5415L48.7402 28.5396L48.7393 28.5377L48.7383 28.5358L48.7374 28.5338L48.7364 28.5319L48.7354 28.53L48.7345 28.5281L48.7335 28.5261L48.7326 28.5242L48.7316 28.5223L48.7306 28.5204L48.7297 28.5185L48.7287 28.5165L48.7277 28.5146L48.7268 28.5127L48.7258 28.5108L48.7249 28.5088L48.7239 28.5069L48.7229 28.505L48.722 28.5031L48.721 28.5012L48.7201 28.4992L48.7191 28.4973L48.7181 28.4954L48.7172 28.4935L48.7162 28.4915L48.7152 28.4896L48.7143 28.4877L48.7133 28.4858L48.7124 28.4839L48.7114 28.4819L48.7104 28.48L48.7095 28.4781L48.7085 28.4762L48.7076 28.4742L48.7066 28.4723L48.7056 28.4704L48.7047 28.4685L48.7037 28.4665L48.7028 28.4646L48.7018 28.4627L48.7008 28.4608L48.6999 28.4589L48.6989 28.4569L48.6979 28.455L48.697 28.4531L48.696 28.4512L48.6951 28.4492L48.6941 28.4473L48.6931 28.4454L48.6922 28.4435L48.6912 28.4416L48.6903 28.4396L48.6893 28.4377L48.6883 28.4358L48.6874 28.4339L48.6864 28.4319L48.6854 28.43L48.6845 28.4281L48.6835 28.4262L48.6826 28.4243L48.6816 28.4223L48.6806 28.4204L48.6797 28.4185L48.6787 28.4166L48.6778 28.4146L48.6768 28.4127L48.6758 28.4108L48.6749 28.4089L48.6739 28.4069L48.673 28.405L48.672 28.4031L48.671 28.4012L48.6701 28.3993L48.6691 28.3973L48.6681 28.3954L48.6672 28.3935L48.6662 28.3916L48.6653 28.3896L48.6643 28.3877L48.6633 28.3858L48.6624 28.3839L48.6614 28.382L48.6605 28.38L48.6595 28.3781L48.6585 28.3762L48.6576 28.3743L48.6566 28.3723L48.6556 28.3704L48.6547 28.3685L48.6537 28.3666L48.6528 28.3647L48.6518 28.3627L48.6508 28.3608L48.6499 28.3589L48.6489 28.357L48.648 28.355L48.647 28.3531L48.646 28.3512L48.6451 28.3493L48.6441 28.3473L48.6432 28.3454L48.6422 28.3435L48.6412 28.3416L48.6403 28.3397L48.6393 28.3377L48.6383 28.3358L48.6374 28.3339L48.6364 28.332L48.6355 28.33L48.6345 28.3281L48.6335 28.3262L48.6326 28.3243L48.6316 28.3224L48.6307 28.3204L48.6297 28.3185L48.6287 28.3166L48.6278 28.3147L48.6268 28.3127L48.6258 28.3108L48.6249 28.3089L48.6239 28.307L48.623 28.305L48.622 28.3031L48.621 28.3012L48.6201 28.2993L48.6191 28.2974L48.6182 28.2954L48.6172 28.2935L48.6162 28.2916L48.6153 28.2897L48.6143 28.2877L48.6133 28.2858L48.6124 28.2839L48.6114 28.282L48.6105 28.2801L48.6095 28.2781L48.6085 28.2762L48.6076 28.2743L48.6066 28.2724L48.6057 28.2704L48.6047 28.2685L48.6037 28.2666L48.6028 28.2647L48.6018 28.2628L48.6009 28.2608L48.5999 28.2589L48.5989 28.257L48.598 28.2551L48.597 28.2531L48.596 28.2512L48.5951 28.2493L48.5941 28.2474L48.5932 28.2454L48.5922 28.2435L48.5912 28.2416L48.5903 28.2397L48.5893 28.2378L48.5884 28.2358L48.5874 28.2339L48.5864 28.232L48.5855 28.2301L48.5845 28.2281L48.5835 28.2262L48.5826 28.2243L48.5816 28.2224L48.5807 28.2205L48.5797 28.2185L48.5787 28.2166L48.5778 28.2147L48.5768 28.2128L48.5759 28.2108L48.5749 28.2089L48.5739 28.207L48.573 28.2051L48.572 28.2032L48.5711 28.2012L48.5701 28.1993L48.5691 28.1974L48.5682 28.1955L48.5672 28.1935L48.5662 28.1916L48.5653 28.1897L48.5643 28.1878L48.5634 28.1858L48.5624 28.1839L48.5614 28.182L48.5605 28.1801L48.5595 28.1782L48.5586 28.1762L48.5576 28.1743L48.5566 28.1724L48.5557 28.1705L48.5547 28.1685L48.5537 28.1666L48.5528 28.1647L48.5518 28.1628L48.5509 28.1609L48.5499 28.1589L48.5489 28.157L48.548 28.1551L48.547 28.1532L48.5461 28.1512L48.5451 28.1493L48.5441 28.1474L48.5432 28.1455L48.5422 28.1436L48.5413 28.1416L48.5403 28.1397L48.5393 28.1378L48.5384 28.1359L48.5374 28.1339L48.5364 28.132L48.5355 28.1301L48.5345 28.1282L48.5336 28.1262L48.5326 28.1243L48.5316 28.1224L48.5307 28.1205L48.5297 28.1186L48.5288 28.1166L48.5278 28.1147L48.5268 28.1128L48.5259 28.1109L48.5249 28.1089L48.5239 28.107L48.523 28.1051L48.522 28.1032L48.5211 28.1013L48.5201 28.0993L48.5191 28.0974L48.5182 28.0955L48.5172 28.0936L48.5163 28.0916L48.5153 28.0897L48.5143 28.0878L48.5134 28.0859L48.5124 28.084L48.5115 28.082L48.5105 28.0801L48.5095 28.0782L48.5086 28.0763L48.5076 28.0743L48.5066 28.0724L48.5057 28.0705L48.5047 28.0686L48.5038 28.0666L48.5028 28.0647L48.5018 28.0628L48.5009 28.0609L48.4999 28.059L48.499 28.057L48.498 28.0551L48.497 28.0532L48.4961 28.0513L48.4951 28.0493L48.4941 28.0474L48.4932 28.0455L48.4922 28.0436L48.4913 28.0417L48.4903 28.0397L48.4893 28.0378L48.4884 28.0359L48.4874 28.034L48.4865 28.032L48.4855 28.0301L48.4845 28.0282L48.4836 28.0263L48.4826 28.0243L48.4817 28.0224L48.4807 28.0205L48.4797 28.0186L48.4788 28.0167L48.4778 28.0147L48.4768 28.0128L48.4759 28.0109L48.4749 28.009L48.474 28.007L48.473 28.0051L48.472 28.0032L48.4711 28.0013L48.4701 27.9994L48.4692 27.9974L48.4682 27.9955L48.4672 27.9936L48.4663 27.9917L48.4653 27.9897L48.4643 27.9878L48.4634 27.9859L48.4624 27.984L48.4615 27.9821L48.4605 27.9801L48.4595 27.9782L48.4586 27.9763L48.4576 27.9744L48.4567 27.9724L48.4557 27.9705L48.4547 27.9686L48.4538 27.9667L48.4528 27.9647L48.4519 27.9628L48.4509 27.9609L48.4499 27.959L48.449 27.9571L48.448 27.9551L48.447 27.9532L48.4461 27.9513L48.4451 27.9494L48.4442 27.9474L48.4432 27.9455L48.4422 27.9436L48.4413 27.9417L48.4403 27.9398L48.4394 27.9378L48.4384 27.9359L48.4374 27.934L48.4365 27.9321L48.4355 27.9301L48.4345 27.9282L48.4336 27.9263L48.4326 27.9244L48.4317 27.9225L48.4307 27.9205L48.4297 27.9186L48.4288 27.9167L48.4278 27.9148L48.4269 27.9128L48.4259 27.9109L48.4249 27.909L48.424 27.9071L48.423 27.9051L48.4221 27.9032L48.4211 27.9013L48.4201 27.8994L48.4192 27.8975L48.4182 27.8955L48.4172 27.8936L48.4163 27.8917L48.4153 27.8898L48.4144 27.8878L48.4134 27.8859L48.4124 27.884L48.4115 27.8821L48.4105 27.8802L48.4096 27.8782L48.4086 27.8763L48.4076 27.8744L48.4067 27.8725L48.4057 27.8705L48.4047 27.8686L48.4038 27.8667L48.4028 27.8648L48.4019 27.8629L48.4009 27.8609L48.3999 27.859L48.399 27.8571L48.398 27.8552L48.3971 27.8532L48.3961 27.8513L48.3951 27.8494L48.3942 27.8475L48.3932 27.8455L48.3923 27.8436L48.3913 27.8417L48.3903 27.8398L48.3894 27.8379L48.3884 27.8359L48.3874 27.834L48.3865 27.8321L48.3855 27.8302L48.3846 27.8282L48.3836 27.8263L48.3826 27.8244L48.3817 27.8225L48.3807 27.8206L48.3798 27.8186L48.3788 27.8167L48.3778 27.8148L48.3769 27.8129L48.3759 27.8109L48.3749 27.809L48.374 27.8071L48.373 27.8052L48.3721 27.8032L48.3711 27.8013L48.3701 27.7994L48.3692 27.7975L48.3682 27.7956L48.3673 27.7936L48.3663 27.7917L48.3653 27.7898L48.3644 27.7879L48.3634 27.7859L48.3624 27.784L48.3615 27.7821L48.3605 27.7802L48.3596 27.7783L48.3586 27.7763L48.3576 27.7744L48.3567 27.7725L48.3557 27.7706L48.3548 27.7686L48.3538 27.7667L48.3528 27.7648L48.3519 27.7629L48.3509 27.761L48.35 27.759L48.349 27.7571L48.348 27.7552L48.3471 27.7533L48.3461 27.7513L48.3451 27.7494L48.3442 27.7475L48.3432 27.7456L48.3423 27.7436L48.3413 27.7417L48.3403 27.7398L48.3394 27.7379L48.3384 27.736L48.3375 27.734L48.3365 27.7321L48.3355 27.7302L48.3346 27.7283L48.3336 27.7263L48.3326 27.7244L48.3317 27.7225L48.3307 27.7206L48.3298 27.7187L48.3288 27.7167L48.3278 27.7148L48.3269 27.7129L48.3259 27.711L48.325 27.709L48.324 27.7071L48.323 27.7052L48.3221 27.7033L48.3211 27.7014L48.3202 27.6994L48.3192 27.6975L48.3182 27.6956L48.3173 27.6937L48.3163 27.6917L48.3153 27.6898L48.3144 27.6879L48.3134 27.686L48.3125 27.684L48.3115 27.6821L48.3105 27.6802L48.3096 27.6783L48.3086 27.6764L48.3077 27.6744L48.3067 27.6725L48.3057 27.6706L48.3048 27.6687L48.3038 27.6667L48.3028 27.6648L48.3019 27.6629L48.3009 27.661L48.3 27.6591L48.299 27.6571L48.298 27.6552L48.2971 27.6533L48.2961 27.6514L48.2952 27.6494L48.2942 27.6475L48.2932 27.6456L48.2923 27.6437L48.2913 27.6418L48.2904 27.6398L48.2894 27.6379L48.2884 27.636L48.2875 27.6341L48.2865 27.6321ZM13.9942 28.1499L13.9942 28.15H14C14.4732 28.15 14.9084 28.2375 15.3074 28.411C15.7101 28.5861 16.0589 28.8218 16.3549 29.1178C16.651 29.4139 16.8964 29.7724 17.0902 30.1953C17.2811 30.6118 17.3674 31.0441 17.3501 31.4942L17.35 31.4942V31.5C17.35 31.9732 17.2625 32.4084 17.089 32.8074C16.9139 33.2101 16.6782 33.5589 16.3822 33.8549C16.0861 34.151 15.7276 34.3964 15.3047 34.5902C14.8882 34.7811 14.4559 34.8674 14.0058 34.8501L14.0058 34.85H14C13.5268 34.85 13.0916 34.7625 12.6926 34.589C12.2899 34.4139 11.9411 34.1782 11.6451 33.8822C11.349 33.5861 11.1036 33.2276 10.9098 32.8047C10.7189 32.3882 10.6326 31.9559 10.6499 31.5058L10.65 31.5058V31.5C10.65 31.0268 10.7375 30.5916 10.911 30.1926C11.0861 29.7899 11.3218 29.4411 11.6178 29.1451C11.9139 28.849 12.2724 28.6036 12.6953 28.4098C13.1118 28.2189 13.5441 28.1326 13.9942 28.1499Z" fill="#000080" stroke="white" stroke-width="0.3"/>
</g>
<defs>
<clipPath id="clip0_119_233">
<rect width="56" height="56" fill="white"/>
</clipPath>
</defs>
</svg>
