<svg width="56" height="56" viewBox="0 0 56 56" fill="none" xmlns="http://www.w3.org/2000/svg">
<path d="M27.9997 28.5487C30.8549 28.5453 33.5922 27.3844 35.6111 25.3205C37.63 23.2567 38.7656 20.4585 38.7689 17.5398C38.1771 2.93512 17.8201 2.93937 17.2305 17.5399C17.2338 20.4586 18.3694 23.2567 20.3883 25.3206C22.4073 27.3844 25.1445 28.5453 27.9997 28.5487ZM27.9997 8.33976C30.3858 8.3425 32.6734 9.31267 34.3606 11.0374C36.0478 12.7622 36.9969 15.1006 36.9995 17.5398C36.5053 29.745 19.4924 29.7414 18.9999 17.5397C19.0026 15.1006 19.9516 12.7621 21.6388 11.0374C23.3261 9.31262 25.6136 8.3425 27.9997 8.33976Z" fill="#000080"/>
<path d="M11.6644 21.1062C12.2304 21.2539 12.7549 21.534 13.1963 21.9241C13.6378 22.3143 13.984 22.8039 14.2076 23.3541C14.4312 23.9044 14.5261 24.5001 14.4847 25.0942C14.4433 25.6883 14.2667 26.2644 13.969 26.7769C13.8784 26.9315 13.8342 27.1097 13.8417 27.2896C13.8493 27.4695 13.9083 27.6432 14.0115 27.7894C15.0979 29.3287 16.4233 30.677 17.9355 31.7814C18.0785 31.8862 18.2484 31.9461 18.4244 31.9538C18.6004 31.9615 18.7747 31.9166 18.926 31.8247C19.4253 31.5157 19.989 31.3311 20.5714 31.2857C21.1538 31.2403 21.7385 31.3354 22.2781 31.5634C22.8177 31.7913 23.2971 32.1456 23.6773 32.5976C24.0575 33.0497 24.3279 33.5866 24.4666 34.1651C24.5099 34.339 24.6022 34.4962 24.7319 34.6174C24.8617 34.7386 25.0233 34.8186 25.1971 34.8475C27.0325 35.1568 28.9051 35.1589 30.7412 34.8538C30.9154 34.8247 31.0775 34.7444 31.2076 34.6227C31.3377 34.5009 31.4301 34.3432 31.4735 34.1687C31.6183 33.5916 31.893 33.0569 32.2757 32.6069C32.6584 32.1569 33.1387 31.8039 33.6785 31.5759C34.2183 31.3479 34.8027 31.2513 35.3855 31.2935C35.9683 31.3358 36.5334 31.5158 37.0361 31.8193C37.1878 31.9117 37.3626 31.9568 37.5391 31.9491C37.7156 31.9414 37.886 31.8812 38.0293 31.7759C39.5393 30.6685 40.862 29.3174 41.9453 27.7758C42.0479 27.6299 42.1066 27.4567 42.1141 27.2774C42.1216 27.098 42.0777 26.9204 41.9878 26.7661C41.689 26.2561 41.5114 25.682 41.4691 25.0895C41.4267 24.4971 41.5209 23.9028 41.7439 23.3541C41.967 22.8053 42.3128 22.3174 42.7537 21.9291C43.1947 21.5408 43.7186 21.263 44.2836 21.1179C44.4542 21.0737 44.6084 20.9797 44.7273 20.8474C44.8463 20.7151 44.9247 20.5503 44.9531 20.3732C45.2562 18.5022 45.2583 16.5932 44.9592 14.7215C44.9307 14.5438 44.8519 14.3786 44.7325 14.246C44.6131 14.1134 44.4583 14.0192 44.2871 13.975C43.7187 13.8311 43.1914 13.5532 42.7475 13.1637C42.3036 12.7742 41.9556 12.2839 41.7314 11.7324C41.5073 11.1808 41.4132 10.5833 41.4568 9.98788C41.5004 9.39249 41.6804 8.81584 41.9825 8.3043C42.0731 8.14973 42.1173 7.97151 42.1098 7.79161C42.1022 7.61171 42.0432 7.43799 41.94 7.29187C40.8536 5.75255 39.5282 4.40418 38.016 3.29984C37.8729 3.19524 37.703 3.13544 37.5271 3.12776C37.3512 3.12007 37.1769 3.16484 37.0255 3.25657C36.5262 3.56549 35.9625 3.75013 35.3801 3.79552C34.7977 3.84092 34.213 3.7458 33.6734 3.51787C33.1338 3.28993 32.6545 2.9356 32.2742 2.48359C31.894 2.03159 31.6236 1.49461 31.485 0.916199C31.4416 0.742292 31.3494 0.585073 31.2196 0.463838C31.0898 0.342604 30.9282 0.262629 30.7545 0.23373C28.9191 -0.0757798 27.0464 -0.0779095 25.2103 0.227425C25.0361 0.256543 24.874 0.336891 24.7439 0.458605C24.6138 0.58032 24.5214 0.738104 24.4781 0.912589C24.3369 1.49203 24.0643 2.02961 23.6822 2.4821C23.3001 2.93459 22.8192 3.28936 22.2781 3.51788C21.7371 3.74641 21.1509 3.84231 20.5669 3.79787C19.9828 3.75343 19.4172 3.56989 18.9154 3.26201C18.7638 3.16943 18.589 3.12418 18.4124 3.13187C18.2359 3.13956 18.0655 3.19985 17.9222 3.30528C16.4122 4.41275 15.0895 5.76386 14.0062 7.30542C13.9036 7.45129 13.845 7.6245 13.8374 7.80383C13.8299 7.98317 13.8738 8.16085 13.9638 8.31514C14.2668 8.82418 14.4479 9.39884 14.4925 9.99254C14.537 10.5862 14.4437 11.1823 14.2201 11.7324C13.9965 12.2825 13.6489 12.7711 13.2055 13.1587C12.7621 13.5463 12.2354 13.8219 11.668 13.9633C11.4974 14.0075 11.3431 14.1015 11.2242 14.2338C11.1053 14.3661 11.0268 14.5309 10.9985 14.708C10.6953 16.579 10.6932 18.488 10.9923 20.3597C11.0209 20.5374 11.0997 20.7026 11.2191 20.8352C11.3385 20.9678 11.4932 21.062 11.6644 21.1062ZM12.7053 15.5645C13.4166 15.2918 14.0654 14.8733 14.6116 14.3346C15.1578 13.796 15.5896 13.1488 15.8805 12.4332C16.1713 11.7175 16.3149 10.9485 16.3024 10.174C16.2899 9.39944 16.1215 8.63575 15.8077 7.93023C16.5977 6.88676 17.5144 5.94978 18.536 5.14175C19.2307 5.46056 19.982 5.6311 20.7438 5.64288C21.5056 5.65466 22.2616 5.50744 22.9655 5.21027C23.6694 4.9131 24.3062 4.47226 24.8367 3.91488C25.3672 3.3575 25.7803 2.69536 26.0505 1.96919C27.3334 1.80346 28.6318 1.80498 29.9143 1.97371C30.1817 2.69879 30.5924 3.36018 31.1207 3.91693C31.6491 4.47367 32.284 4.91391 32.986 5.21039C33.6881 5.50687 34.4423 5.65327 35.2021 5.64053C35.9619 5.62778 36.7111 5.45617 37.4032 5.13632C38.4268 5.94164 39.3459 6.8762 40.1385 7.91757C39.8258 8.62577 39.6586 9.39169 39.647 10.1682C39.6355 10.9448 39.7799 11.7155 40.0714 12.433C40.3629 13.1506 40.7953 13.7997 41.3421 14.3406C41.8888 14.8814 42.5383 15.3025 43.2506 15.578C43.4123 16.8858 43.4108 18.2093 43.2462 19.5168C42.5349 19.7894 41.8861 20.208 41.3399 20.7466C40.7937 21.2852 40.3619 21.9324 40.071 22.6481C39.7802 23.3638 39.6366 24.1327 39.6491 24.9073C39.6616 25.6818 39.83 26.4455 40.1438 27.1511C39.3538 28.1945 38.4371 29.1315 37.4155 29.9395C36.7208 29.6207 35.9695 29.4502 35.2077 29.4384C34.446 29.4266 33.6899 29.5739 32.986 29.871C32.2822 30.1682 31.6454 30.609 31.1148 31.1664C30.5843 31.7238 30.1712 32.3859 29.9011 33.1121C28.6181 33.2769 27.3198 33.2754 26.0372 33.1076C25.7698 32.3825 25.3592 31.7211 24.8308 31.1643C24.3024 30.6076 23.6676 30.1673 22.9655 29.8708C22.2635 29.5744 21.5092 29.428 20.7494 29.4407C19.9896 29.4535 19.2405 29.6251 18.5484 29.9449C17.5248 29.1396 16.6057 28.2051 15.813 27.1637C16.1257 26.4555 16.293 25.6896 16.3045 24.913C16.3161 24.1365 16.1716 23.3657 15.8801 22.6482C15.5886 21.9307 15.1562 21.2815 14.6095 20.7407C14.0627 20.1998 13.4132 19.7787 12.7009 19.5033C12.5392 18.1954 12.5407 16.8719 12.7053 15.5645ZM45.1821 35.081C43.7415 35.0826 42.3604 35.6667 41.3417 36.7052C40.3231 37.7436 39.7501 39.1515 39.7485 40.6201C40.0034 47.9511 50.3619 47.9492 50.6157 40.62C50.6141 39.1514 50.0411 37.7435 49.0225 36.7051C48.0038 35.6667 46.6227 35.0826 45.1821 35.081ZM45.1821 44.3128C44.227 44.3041 43.3139 43.9112 42.6416 43.2196C41.9692 42.528 41.592 41.5938 41.592 40.6201C41.592 39.6464 41.9692 38.7121 42.6416 38.0205C43.314 37.329 44.2271 36.9361 45.1822 36.9274C46.1373 36.9361 47.0503 37.329 47.7227 38.0206C48.3951 38.7121 48.7723 39.6464 48.7723 40.6201C48.7723 41.5938 48.395 42.5281 47.7227 43.2197C47.0503 43.9112 46.1372 44.3041 45.1821 44.3128Z" fill="#000080"/>
<path d="M55.1829 38.7325C54.925 38.6646 54.686 38.5358 54.4849 38.3562C54.2837 38.1766 54.1259 37.9512 54.0241 37.6978C53.9222 37.4444 53.879 37.1701 53.898 36.8965C53.9169 36.6229 53.9975 36.3576 54.1333 36.1217C54.2253 35.963 54.2703 35.78 54.2628 35.5952C54.2552 35.4105 54.1955 35.232 54.091 35.0817C53.4516 34.1657 52.6711 33.3636 51.7804 32.7072C51.6352 32.5996 51.4627 32.538 51.284 32.5301C51.1053 32.5222 50.9283 32.5683 50.7747 32.6628C50.5475 32.8055 50.2908 32.8909 50.0255 32.9121C49.7602 32.9333 49.4938 32.8896 49.2479 32.7847C49.0021 32.6797 48.7837 32.5164 48.6107 32.3081C48.4377 32.0998 48.3148 31.8523 48.2521 31.5858C48.2084 31.4069 48.1148 31.2451 47.9829 31.1203C47.8509 30.9956 47.6865 30.9134 47.5098 30.8838C46.4297 30.7001 45.3279 30.6989 44.2475 30.8801C44.0703 30.9101 43.9054 30.9927 43.7732 31.1179C43.641 31.2431 43.5472 31.4054 43.5033 31.5849C43.4376 31.8506 43.3126 32.097 43.1383 32.3043C42.964 32.5116 42.7453 32.6742 42.4993 32.7792C42.2534 32.8842 41.9872 32.9287 41.7217 32.9091C41.4562 32.8895 41.1988 32.8065 40.9699 32.6665C40.8157 32.5719 40.6382 32.5257 40.4589 32.5334C40.2797 32.5412 40.1065 32.6026 39.9606 32.7101C39.0717 33.369 38.2933 34.1733 37.6563 35.0911C37.5521 35.2408 37.4924 35.4185 37.4848 35.6026C37.4771 35.7867 37.5217 35.9691 37.6132 36.1274C37.7517 36.3615 37.8346 36.6261 37.8551 36.8995C37.8757 37.1729 37.8333 37.4474 37.7315 37.7008C37.6296 37.9541 37.4711 38.1791 37.269 38.3574C37.0668 38.5357 36.8266 38.6623 36.568 38.7269C36.3944 38.772 36.2374 38.8684 36.1163 39.0044C35.9952 39.1403 35.9155 39.3098 35.8868 39.4919C35.7081 40.6048 35.7069 41.7403 35.8832 42.8536C35.9122 43.0362 35.9925 43.206 36.114 43.3423C36.2355 43.4785 36.393 43.5752 36.5671 43.6204C36.825 43.6882 37.064 43.817 37.2651 43.9966C37.4663 44.1762 37.6241 44.4017 37.7259 44.655C37.8278 44.9084 37.871 45.1828 37.852 45.4563C37.8331 45.7299 37.7525 45.9952 37.6167 46.2311C37.5247 46.3898 37.4798 46.5728 37.4873 46.7576C37.4948 46.9423 37.5545 47.1208 37.6591 47.2711C38.2984 48.1871 39.0789 48.9892 39.9696 49.6455C40.1149 49.7528 40.2874 49.8141 40.466 49.822C40.6446 49.8299 40.8216 49.784 40.9753 49.69C41.2025 49.5472 41.4592 49.4618 41.7245 49.4406C41.9898 49.4194 42.2563 49.4631 42.5021 49.5681C42.748 49.673 42.9663 49.8363 43.1394 50.0447C43.3124 50.253 43.4353 50.5005 43.4979 50.767C43.5417 50.9459 43.6353 51.1077 43.7672 51.2325C43.8991 51.3572 44.0635 51.4394 44.2403 51.469C45.3203 51.6529 46.4222 51.6541 47.5026 51.4727C47.6798 51.4427 47.8446 51.3601 47.9768 51.2349C48.109 51.1097 48.2028 50.9474 48.2467 50.768C48.3126 50.5022 48.4376 50.256 48.6119 50.0487C48.7862 49.8415 49.005 49.6789 49.2508 49.5739C49.4967 49.469 49.7629 49.4245 50.0284 49.444C50.2938 49.4635 50.5512 49.5464 50.7802 49.6863C50.9344 49.7806 51.1119 49.8268 51.2911 49.819C51.4703 49.8113 51.6434 49.7501 51.7894 49.6427C52.6784 48.9839 53.4567 48.1796 54.0937 47.2618C54.198 47.1121 54.2576 46.9343 54.2653 46.7502C54.2729 46.5662 54.2283 46.3838 54.1369 46.2255C53.9983 45.9913 53.9154 45.7268 53.8949 45.4534C53.8743 45.18 53.9167 44.9054 54.0186 44.6521C54.1204 44.3987 54.2789 44.1738 54.4811 43.9954C54.6833 43.8171 54.9234 43.6905 55.182 43.6259C55.3557 43.5809 55.5127 43.4844 55.6337 43.3485C55.7548 43.2125 55.8346 43.0431 55.8633 42.861C56.042 41.7481 56.0432 40.6126 55.8669 39.4993C55.8378 39.3167 55.7576 39.1468 55.6361 39.0106C55.5146 38.8744 55.3571 38.7777 55.1829 38.7325ZM54.1171 42.009C53.3065 42.394 52.6666 43.0797 52.3249 43.9294C51.9833 44.7791 51.965 45.7302 52.2738 46.5932C51.9331 47.0226 51.552 47.4162 51.1361 47.7684C50.2964 47.4516 49.372 47.4715 48.5459 47.8239C47.7198 48.1764 47.0523 48.8358 46.6758 49.6715C46.1408 49.7255 45.602 49.7249 45.0671 49.6696C44.6935 48.8344 44.028 48.175 43.2035 47.8229C42.3789 47.4709 41.4559 47.4521 40.6185 47.7702C40.2018 47.4191 39.8198 47.0264 39.478 46.5978C39.7852 45.7326 39.7658 44.78 39.4238 43.9288C39.0817 43.0776 38.442 42.3898 37.6312 42.0016C37.5792 41.4503 37.5798 40.8951 37.633 40.3439C38.4436 39.9589 39.0835 39.2732 39.4252 38.4235C39.7668 37.5738 39.7851 36.6226 39.4763 35.7597C39.817 35.3303 40.1981 34.9367 40.614 34.5845C41.4536 34.9008 42.3779 34.8807 43.2039 34.5283C44.0299 34.1759 44.6974 33.5168 45.0743 32.6814C45.6092 32.6274 46.1481 32.628 46.6829 32.6833C47.0564 33.5187 47.7219 34.1782 48.5464 34.5302C49.371 34.8823 50.2941 34.9011 51.1315 34.5827C51.5482 34.9339 51.9303 35.3266 52.272 35.7551C51.9649 36.6204 51.9843 37.5729 52.3263 38.424C52.6683 39.2752 53.3081 39.963 54.1189 40.3513C54.1708 40.9026 54.1702 41.4578 54.1171 42.009ZM10.9045 35.4865C9.44053 35.4881 8.037 36.0881 7.00184 37.1548C5.96667 38.2216 5.38441 39.6678 5.38281 41.1764C5.64186 48.7071 16.1682 48.7051 16.4261 41.1763C16.4245 39.6678 15.8422 38.2215 14.8071 37.1548C13.7719 36.0881 12.3684 35.4881 10.9045 35.4865ZM10.9045 44.9697C9.93389 44.9607 9.00601 44.5571 8.32275 43.8467C7.6395 43.1363 7.25617 42.1766 7.25617 41.1764C7.25618 40.1762 7.63953 39.2164 8.32279 38.506C9.00606 37.7956 9.93394 37.3921 10.9045 37.3831C11.8751 37.3921 12.803 37.7957 13.4863 38.5061C14.1695 39.2165 14.5528 40.1762 14.5528 41.1764C14.5528 42.1766 14.1695 43.1364 13.4862 43.8468C12.803 44.5572 11.8751 44.9607 10.9045 44.9697Z" fill="#000080"/>
<path d="M19.414 43.6259C19.5875 43.5808 19.7444 43.4844 19.8653 43.3485C19.9863 43.2125 20.066 43.0431 20.0947 42.861C20.2732 41.7481 20.2744 40.6126 20.0983 39.4993C20.0692 39.3167 19.9891 39.1468 19.8677 39.0106C19.7463 38.8743 19.5889 38.7777 19.4149 38.7324C19.1561 38.6664 18.916 38.5386 18.7139 38.3593C18.5118 38.18 18.3533 37.9542 18.2513 37.7002C18.1492 37.4462 18.1065 37.1711 18.1264 36.8969C18.1464 36.6227 18.2285 36.3572 18.3661 36.1218C18.458 35.963 18.503 35.78 18.4955 35.5953C18.488 35.4105 18.4284 35.232 18.3239 35.0818C17.685 34.1657 16.9052 33.3636 16.0152 32.7073C15.8702 32.5996 15.6978 32.538 15.5193 32.5301C15.3407 32.5222 15.1639 32.5683 15.0104 32.6628C14.7829 32.8034 14.5267 32.8871 14.2622 32.9071C13.9977 32.9272 13.7323 32.8832 13.4873 32.7785C13.2423 32.6738 13.0245 32.5113 12.8513 32.3042C12.6781 32.0971 12.5543 31.851 12.4898 31.5857C12.4461 31.4068 12.3526 31.245 12.2208 31.1203C12.089 30.9956 11.9247 30.9134 11.7481 30.8838C10.669 30.7001 9.56806 30.6989 8.48854 30.8801C8.31149 30.9101 8.14679 30.9927 8.0147 31.1179C7.8826 31.2431 7.78887 31.4054 7.74502 31.5848C7.68096 31.8517 7.55701 32.0994 7.38318 32.3078C7.20934 32.5162 6.99046 32.6797 6.74418 32.7849C6.4979 32.8901 6.2311 32.9343 5.96526 32.9137C5.69942 32.8931 5.44198 32.8085 5.21367 32.6665C5.05967 32.5719 4.88227 32.5257 4.70318 32.5334C4.52409 32.5411 4.35106 32.6025 4.20526 32.7101C3.31706 33.3689 2.53933 34.1732 1.9029 35.091C1.79871 35.2407 1.73914 35.4185 1.73149 35.6025C1.72383 35.7866 1.76842 35.969 1.85979 36.1273C1.99618 36.3619 2.07738 36.6262 2.0969 36.899C2.11641 37.1718 2.0737 37.4455 1.97217 37.6982C1.87064 37.951 1.71313 38.1756 1.51225 38.3542C1.31137 38.5329 1.07272 38.6605 0.815411 38.7268C0.641951 38.7719 0.485078 38.8684 0.364136 39.0043C0.243194 39.1402 0.163474 39.3097 0.134807 39.4918C-0.0437242 40.6047 -0.0449355 41.7402 0.131221 42.8535C0.160266 43.0361 0.24042 43.206 0.361825 43.3422C0.483231 43.4784 0.640594 43.5751 0.814565 43.6203C1.07334 43.6864 1.31346 43.8142 1.51557 43.9935C1.71768 44.1728 1.87614 44.3985 1.97818 44.6525C2.08023 44.9065 2.123 45.1817 2.10306 45.4559C2.08312 45.73 2.00103 45.9955 1.86339 46.231C1.77146 46.3897 1.72648 46.5727 1.73398 46.7575C1.74147 46.9422 1.80112 47.1207 1.90559 47.271C2.54445 48.187 3.3243 48.9891 4.21424 49.6455C4.35944 49.7527 4.53179 49.8141 4.71023 49.822C4.88867 49.8299 5.06548 49.784 5.21905 49.6899C5.44654 49.5494 5.7028 49.4657 5.96729 49.4456C6.23178 49.4255 6.49716 49.4695 6.74217 49.5742C6.98718 49.6789 7.20501 49.8413 7.37822 50.0485C7.55144 50.2556 7.67521 50.5017 7.73964 50.767C7.78333 50.9459 7.87685 51.1077 8.00865 51.2324C8.14045 51.3572 8.30478 51.4394 8.48136 51.469C9.56047 51.6528 10.6614 51.6541 11.7409 51.4727C11.918 51.4427 12.0827 51.36 12.2148 51.2348C12.3469 51.1096 12.4406 50.9473 12.4845 50.7679C12.5485 50.501 12.6725 50.2534 12.8463 50.045C13.0201 49.8365 13.239 49.6731 13.4853 49.5679C13.7316 49.4626 13.9984 49.4185 14.2642 49.4391C14.5301 49.4596 14.7875 49.5443 15.0158 49.6862C15.1699 49.7806 15.3472 49.8267 15.5263 49.819C15.7053 49.8113 15.8783 49.75 16.0242 49.6427C16.9124 48.9838 17.6902 48.1796 18.3266 47.2617C18.4308 47.1121 18.4903 46.9343 18.498 46.7502C18.5057 46.5661 18.4611 46.3838 18.3697 46.2254C18.2333 45.9908 18.1521 45.7265 18.1326 45.4538C18.1131 45.181 18.1558 44.9072 18.2573 44.6545C18.3588 44.4018 18.5163 44.1772 18.7172 43.9985C18.9181 43.8199 19.1567 43.6923 19.414 43.6259ZM18.3499 42.009C17.54 42.3939 16.9006 43.0797 16.5593 43.9293C16.2179 44.779 16.1997 45.7302 16.5082 46.5931C16.1677 47.0225 15.7869 47.4161 15.3714 47.7683C14.5325 47.4516 13.6088 47.4715 12.7834 47.824C11.958 48.1764 11.2911 48.8358 10.9148 49.6714C10.3803 49.7254 9.84192 49.7248 9.30752 49.6696C8.93419 48.8343 8.26929 48.1749 7.44543 47.8229C6.62158 47.4708 5.69932 47.452 4.8626 47.7702C4.44624 47.419 4.06455 47.0263 3.72309 46.5977C4.02996 45.7325 4.01061 44.78 3.66886 43.9288C3.32711 43.0776 2.68788 42.3898 1.87776 42.0015C1.82584 41.4503 1.82646 40.895 1.8796 40.3439C2.68949 39.9589 3.32889 39.2732 3.67025 38.4235C4.01161 37.5738 4.02985 36.6227 3.72131 35.7597C4.06177 35.3303 4.44255 34.9367 4.85808 34.5845C5.69703 34.9009 6.62055 34.8808 7.44586 34.5284C8.27117 34.176 8.9381 33.5168 9.31465 32.6814C9.84917 32.6274 10.3876 32.6281 10.922 32.6833C11.2952 33.5187 11.96 34.1782 12.7839 34.5303C13.6078 34.8823 14.5302 34.9011 15.3669 34.5827C15.7832 34.9339 16.1649 35.3266 16.5064 35.7552C16.1995 36.6204 16.2189 37.5729 16.5607 38.424C16.9024 39.2752 17.5416 39.963 18.3517 40.3512C18.4037 40.9025 18.4031 41.4578 18.3499 42.009ZM27.5854 44.0213C26.6157 44.0303 25.6886 44.4339 25.0059 45.1443C24.3232 45.8547 23.9402 46.8144 23.9402 47.8146C23.9402 48.8148 24.3232 49.7745 25.0059 50.4849C25.6886 51.1953 26.6157 51.5989 27.5855 51.6079C28.5553 51.5989 29.4824 51.1953 30.1651 50.4849C30.8478 49.7745 31.2308 48.8148 31.2308 47.8146C31.2308 46.8144 30.8477 45.8547 30.165 45.1443C29.4823 44.4339 28.5552 44.0303 27.5854 44.0213ZM27.5854 49.7112C27.1013 49.7055 26.6389 49.5032 26.2986 49.1481C25.9582 48.793 25.7673 48.3139 25.7673 47.8146C25.7673 47.3153 25.9582 46.8361 26.2986 46.481C26.639 46.126 27.1014 45.9237 27.5855 45.918C28.0696 45.9237 28.532 46.126 28.8724 46.4811C29.2128 46.8362 29.4037 47.3153 29.4037 47.8146C29.4036 48.3139 29.2127 48.7931 28.8724 49.1482C28.532 49.5032 28.0696 49.7055 27.5854 49.7112Z" fill="#000080"/>
<path d="M35.7908 45.5928C35.6048 45.547 35.4325 45.46 35.2874 45.3386C35.1424 45.2172 35.0287 45.0648 34.9553 44.8934C34.882 44.7221 34.851 44.5366 34.865 44.3517C34.8789 44.1668 34.9373 43.9876 35.0355 43.8283C35.1307 43.6735 35.1771 43.4951 35.1689 43.3152C35.1608 43.1352 35.0985 42.9615 34.9897 42.8152C34.4458 42.0846 33.7821 41.4447 33.0247 40.9207C32.3185 40.3844 31.6202 41.342 30.8784 40.9613C30.0491 40.7043 30.3079 39.5855 29.3902 39.4669C28.4709 39.3212 27.5334 39.32 26.6137 39.4633C26.4294 39.4925 26.258 39.5731 26.1205 39.6952C25.9829 39.8172 25.8854 39.9755 25.8397 40.1504C25.7924 40.3301 25.7022 40.4966 25.5766 40.6367C25.4509 40.7768 25.2931 40.8866 25.1157 40.9575C24.9383 41.0283 24.7463 41.0582 24.5549 41.0447C24.3635 41.0313 24.178 40.9749 24.0131 40.88C23.8527 40.7883 23.6681 40.7436 23.4818 40.7515C23.2956 40.7594 23.1157 40.8194 22.9642 40.9243C22.2079 41.4497 21.5455 42.0909 21.003 42.8224C20.4461 43.5057 21.4397 44.1774 21.045 44.8957C20.9712 45.0666 20.8568 45.2183 20.7109 45.3384C20.565 45.4586 20.3919 45.5439 20.2056 45.5873C20.0253 45.6316 19.8622 45.7258 19.7365 45.8583C19.6108 45.9908 19.5279 46.1558 19.4979 46.3332C19.3457 47.221 19.3444 48.1269 19.4942 49.0151C19.5244 49.1931 19.6079 49.3588 19.7343 49.4916C19.8606 49.6244 20.0245 49.7187 20.2056 49.7628C20.3916 49.8085 20.5639 49.8956 20.709 50.017C20.854 50.1384 20.9678 50.2908 21.0411 50.4621C21.1144 50.6334 21.1454 50.8189 21.1315 51.0038C21.1175 51.1887 21.0591 51.368 20.9609 51.5272C20.8657 51.6821 20.8193 51.8605 20.8275 52.0404C20.8356 52.2204 20.8979 52.3941 21.0067 52.5404C21.5506 53.271 22.2143 53.9109 22.9717 54.4349C23.6781 54.9738 24.3745 54.0114 25.118 54.3942C25.9473 54.6513 25.6885 55.77 26.6062 55.8887C27.5254 56.0355 28.4631 56.0367 29.3826 55.8923C29.567 55.8631 29.7384 55.7825 29.8759 55.6604C30.0134 55.5383 30.111 55.3801 30.1567 55.2051C30.204 55.0255 30.2941 54.859 30.4198 54.7188C30.5455 54.5787 30.7033 54.4689 30.8807 54.398C31.058 54.3272 31.25 54.2973 31.4415 54.3107C31.6329 54.3242 31.8184 54.3806 31.9833 54.4755C32.1437 54.5675 32.3283 54.6123 32.5146 54.6044C32.7009 54.5965 32.8807 54.5364 33.0322 54.4313C33.7885 53.9058 34.4509 53.2647 34.9934 52.5332C35.1019 52.3869 35.1639 52.2133 35.1719 52.0335C35.1798 51.8537 35.1334 51.6756 35.0383 51.5209C34.9386 51.363 34.8788 51.1847 34.8637 51.0004C34.8486 50.8161 34.8786 50.6309 34.9514 50.4599C35.2175 49.6588 36.3757 49.9088 36.4985 49.0223C36.6507 48.1345 36.6519 47.2286 36.5022 46.3404C36.472 46.1624 36.3885 45.9968 36.2621 45.864C36.1358 45.7311 35.9719 45.6369 35.7908 45.5928ZM34.6756 48.2061C34.0037 48.5334 33.4756 49.0829 33.1876 49.7546C32.8996 50.4262 32.8706 51.1754 33.1061 51.8659C32.8714 52.1343 32.614 52.3835 32.3367 52.6109C31.6205 52.3852 30.8444 52.4143 30.1485 52.6928C29.4525 52.9713 28.8825 53.4809 28.5414 54.1297C28.1786 54.1575 27.814 54.1569 27.4514 54.1279C27.1123 53.4788 26.5435 52.9689 25.8482 52.6907C25.1529 52.4124 24.3774 52.3844 23.6625 52.6117C23.3847 52.385 23.1267 52.1364 22.8913 51.8686C23.125 51.1768 23.095 50.427 22.8066 49.7547C22.5183 49.0824 21.9907 48.5319 21.319 48.2024C21.2897 47.852 21.2903 47.4998 21.3209 47.1495C21.9928 46.8221 22.5209 46.2726 22.8089 45.601C23.0969 44.9294 23.1259 44.1802 22.8904 43.4897C23.1252 43.2213 23.3825 42.9721 23.6598 42.7447C24.376 42.9706 25.1522 42.9416 25.8482 42.6631C26.5442 42.3846 27.1142 41.8748 27.4552 41.2258C27.8179 41.1971 28.1825 41.1977 28.5452 41.2277C28.8842 41.8767 29.453 42.3866 30.1483 42.6649C30.8436 42.9431 31.6191 42.9711 32.334 42.7438C32.6118 42.9706 32.8698 43.2191 33.1052 43.487C32.8715 44.1788 32.9015 44.9285 33.1899 45.6008C33.4782 46.2731 34.0058 46.8237 34.6775 47.1532C34.7068 47.5036 34.7062 47.8557 34.6756 48.2061ZM24.1692 24.0988H31.8272C32.5886 24.098 33.3186 23.8055 33.8569 23.2854C34.3953 22.7654 34.6981 22.0603 34.699 21.3248V14.8521C34.6981 14.1167 34.3953 13.4116 33.8569 12.8915C33.3186 12.3714 32.5886 12.0789 31.8272 12.0781H24.1692C23.4078 12.0789 22.6778 12.3714 22.1395 12.8915C21.6011 13.4116 21.2983 14.1167 21.2974 14.8521V21.3248C21.2983 22.0603 21.6011 22.7654 22.1395 23.2854C22.6778 23.8055 23.4078 24.098 24.1692 24.0988ZM27.0409 13.9275H28.9564L28.9574 15.3145H27.0409V13.9275ZM23.2119 14.8521C23.2121 14.6069 23.313 14.3718 23.4925 14.1985C23.672 14.0251 23.9154 13.9276 24.1692 13.9275H25.1264V15.3145C25.1271 15.8047 25.329 16.2748 25.6879 16.6214C26.0468 16.9681 26.5334 17.1632 27.0409 17.1638H28.9555C29.463 17.1632 29.9496 16.9681 30.3085 16.6214C30.6674 16.2748 30.8693 15.8047 30.87 15.3145V13.9275H31.8272C32.081 13.9276 32.3244 14.0251 32.5039 14.1985C32.6834 14.3718 32.7843 14.6069 32.7845 14.8521V21.3248C32.7843 21.57 32.6834 21.8051 32.5039 21.9785C32.3244 22.1518 32.081 22.2493 31.8272 22.2495H24.1692C23.9154 22.2493 23.672 22.1518 23.4925 21.9785C23.313 21.8051 23.2121 21.57 23.2119 21.3248V14.8521Z" fill="#000080"/>
</svg>
