<svg width="56" height="56" viewBox="0 0 56 56" fill="none" xmlns="http://www.w3.org/2000/svg">
<path d="M48.125 42H44.625V35.875C44.625 35.6429 44.5328 35.4204 44.3687 35.2563C44.2046 35.0922 43.9821 35 43.75 35H36.75C36.5179 35 36.2954 35.0922 36.1313 35.2563C35.9672 35.4204 35.875 35.6429 35.875 35.875V42H32.375V35.875C32.375 35.6429 32.2828 35.4204 32.1187 35.2563C31.9546 35.0922 31.7321 35 31.5 35H24.5C24.2679 35 24.0454 35.0922 23.8813 35.2563C23.7172 35.4204 23.625 35.6429 23.625 35.875V42H19.25V35.875C19.25 35.6429 19.1578 35.4204 18.9937 35.2563C18.8296 35.0922 18.6071 35 18.375 35H11.375C11.1429 35 10.9204 35.0922 10.7563 35.2563C10.5922 35.4204 10.5 35.6429 10.5 35.875V42H7.875C6.25055 42 4.69263 42.6453 3.54397 43.794C2.39531 44.9426 1.75 46.5005 1.75 48.125C1.75 49.7495 2.39531 51.3074 3.54397 52.456C4.69263 53.6047 6.25055 54.25 7.875 54.25H48.125C49.7495 54.25 51.3074 53.6047 52.456 52.456C53.6047 51.3074 54.25 49.7495 54.25 48.125C54.25 46.5005 53.6047 44.9426 52.456 43.794C51.3074 42.6453 49.7495 42 48.125 42ZM37.625 36.75H39.375V38.5H41.125V36.75H42.875V42H37.625V36.75ZM25.375 36.75H27.125V38.5H28.875V36.75H30.625V42H25.375V36.75ZM12.25 36.75H14V38.5H15.75V36.75H17.5V42H12.25V36.75ZM48.125 52.5H7.875C6.71468 52.5 5.60188 52.0391 4.78141 51.2186C3.96094 50.3981 3.5 49.2853 3.5 48.125C3.5 46.9647 3.96094 45.8519 4.78141 45.0314C5.60188 44.2109 6.71468 43.75 7.875 43.75H48.125C49.2853 43.75 50.3981 44.2109 51.2186 45.0314C52.0391 45.8519 52.5 46.9647 52.5 48.125C52.5 49.2853 52.0391 50.3981 51.2186 51.2186C50.3981 52.0391 49.2853 52.5 48.125 52.5Z" fill="#000080"/>
<path d="M10.5 45.5C9.98083 45.5 9.47331 45.654 9.04163 45.9424C8.60995 46.2308 8.2735 46.6408 8.07482 47.1205C7.87614 47.6001 7.82415 48.1279 7.92544 48.6371C8.02673 49.1463 8.27673 49.614 8.64385 49.9812C9.01096 50.3483 9.47869 50.5983 9.98789 50.6996C10.4971 50.8008 11.0249 50.7489 11.5045 50.5502C11.9842 50.3515 12.3942 50.015 12.6826 49.5834C12.971 49.1517 13.125 48.6442 13.125 48.125C13.125 47.4288 12.8484 46.7611 12.3562 46.2688C11.8639 45.7766 11.1962 45.5 10.5 45.5ZM10.5 49C10.3269 49 10.1578 48.9487 10.0139 48.8525C9.86998 48.7564 9.75783 48.6197 9.69161 48.4598C9.62538 48.3 9.60805 48.124 9.64181 47.9543C9.67558 47.7846 9.75891 47.6287 9.88128 47.5063C10.0037 47.3839 10.1596 47.3006 10.3293 47.2668C10.499 47.2331 10.675 47.2504 10.8348 47.3166C10.9947 47.3828 11.1314 47.495 11.2275 47.6389C11.3237 47.7828 11.375 47.9519 11.375 48.125C11.375 48.3571 11.2828 48.5796 11.1187 48.7437C10.9546 48.9078 10.7321 49 10.5 49ZM19.25 45.5C18.7308 45.5 18.2233 45.654 17.7916 45.9424C17.36 46.2308 17.0235 46.6408 16.8248 47.1205C16.6261 47.6001 16.5742 48.1279 16.6754 48.6371C16.7767 49.1463 17.0267 49.614 17.3938 49.9812C17.761 50.3483 18.2287 50.5983 18.7379 50.6996C19.2471 50.8008 19.7749 50.7489 20.2545 50.5502C20.7342 50.3515 21.1442 50.015 21.4326 49.5834C21.721 49.1517 21.875 48.6442 21.875 48.125C21.875 47.4288 21.5984 46.7611 21.1062 46.2688C20.6139 45.7766 19.9462 45.5 19.25 45.5ZM19.25 49C19.0769 49 18.9078 48.9487 18.7639 48.8525C18.62 48.7564 18.5078 48.6197 18.4416 48.4598C18.3754 48.3 18.3581 48.124 18.3918 47.9543C18.4256 47.7846 18.5089 47.6287 18.6313 47.5063C18.7537 47.3839 18.9096 47.3006 19.0793 47.2668C19.249 47.2331 19.425 47.2504 19.5848 47.3166C19.7447 47.3828 19.8814 47.495 19.9775 47.6389C20.0737 47.7828 20.125 47.9519 20.125 48.125C20.125 48.3571 20.0328 48.5796 19.8687 48.7437C19.7046 48.9078 19.4821 49 19.25 49ZM28 45.5C27.4808 45.5 26.9733 45.654 26.5416 45.9424C26.11 46.2308 25.7735 46.6408 25.5748 47.1205C25.3761 47.6001 25.3242 48.1279 25.4254 48.6371C25.5267 49.1463 25.7767 49.614 26.1438 49.9812C26.511 50.3483 26.9787 50.5983 27.4879 50.6996C27.9971 50.8008 28.5249 50.7489 29.0045 50.5502C29.4842 50.3515 29.8942 50.015 30.1826 49.5834C30.471 49.1517 30.625 48.6442 30.625 48.125C30.625 47.4288 30.3484 46.7611 29.8562 46.2688C29.3639 45.7766 28.6962 45.5 28 45.5ZM28 49C27.8269 49 27.6578 48.9487 27.5139 48.8525C27.37 48.7564 27.2578 48.6197 27.1916 48.4598C27.1254 48.3 27.1081 48.124 27.1418 47.9543C27.1756 47.7846 27.2589 47.6287 27.3813 47.5063C27.5037 47.3839 27.6596 47.3006 27.8293 47.2668C27.999 47.2331 28.175 47.2504 28.3348 47.3166C28.4947 47.3828 28.6314 47.495 28.7275 47.6389C28.8237 47.7828 28.875 47.9519 28.875 48.125C28.875 48.3571 28.7828 48.5796 28.6187 48.7437C28.4546 48.9078 28.2321 49 28 49ZM36.75 45.5C36.2308 45.5 35.7233 45.654 35.2916 45.9424C34.86 46.2308 34.5235 46.6408 34.3248 47.1205C34.1261 47.6001 34.0742 48.1279 34.1754 48.6371C34.2767 49.1463 34.5267 49.614 34.8938 49.9812C35.261 50.3483 35.7287 50.5983 36.2379 50.6996C36.7471 50.8008 37.2749 50.7489 37.7545 50.5502C38.2342 50.3515 38.6442 50.015 38.9326 49.5834C39.221 49.1517 39.375 48.6442 39.375 48.125C39.375 47.4288 39.0984 46.7611 38.6062 46.2688C38.1139 45.7766 37.4462 45.5 36.75 45.5ZM36.75 49C36.5769 49 36.4078 48.9487 36.2639 48.8525C36.12 48.7564 36.0078 48.6197 35.9416 48.4598C35.8754 48.3 35.8581 48.124 35.8918 47.9543C35.9256 47.7846 36.0089 47.6287 36.1313 47.5063C36.2537 47.3839 36.4096 47.3006 36.5793 47.2668C36.749 47.2331 36.925 47.2504 37.0848 47.3166C37.2447 47.3828 37.3814 47.495 37.4775 47.6389C37.5737 47.7828 37.625 47.9519 37.625 48.125C37.625 48.3571 37.5328 48.5796 37.3687 48.7437C37.2046 48.9078 36.9821 49 36.75 49ZM45.5 45.5C44.9808 45.5 44.4733 45.654 44.0416 45.9424C43.61 46.2308 43.2735 46.6408 43.0748 47.1205C42.8761 47.6001 42.8242 48.1279 42.9254 48.6371C43.0267 49.1463 43.2767 49.614 43.6438 49.9812C44.011 50.3483 44.4787 50.5983 44.9879 50.6996C45.4971 50.8008 46.0249 50.7489 46.5045 50.5502C46.9842 50.3515 47.3942 50.015 47.6826 49.5834C47.971 49.1517 48.125 48.6442 48.125 48.125C48.125 47.4288 47.8484 46.7611 47.3562 46.2688C46.8639 45.7766 46.1962 45.5 45.5 45.5ZM45.5 49C45.3269 49 45.1578 48.9487 45.0139 48.8525C44.87 48.7564 44.7578 48.6197 44.6916 48.4598C44.6254 48.3 44.6081 48.124 44.6418 47.9543C44.6756 47.7846 44.7589 47.6287 44.8813 47.5063C45.0037 47.3839 45.1596 47.3006 45.3293 47.2668C45.499 47.2331 45.675 47.2504 45.8348 47.3166C45.9947 47.3828 46.1314 47.495 46.2275 47.6389C46.3237 47.7828 46.375 47.9519 46.375 48.125C46.375 48.3571 46.2828 48.5796 46.1187 48.7437C45.9546 48.9078 45.7321 49 45.5 49ZM36.75 12.25V8.75C36.75 8.55494 36.6848 8.36547 36.5648 8.21169C36.4448 8.05792 36.2768 7.94865 36.0876 7.90125L34.9563 7.61862L35.5565 6.6185C35.6567 6.45117 35.6981 6.25515 35.6742 6.06159C35.6502 5.86803 35.5623 5.68801 35.4244 5.55012L32.9499 3.07563C32.8119 2.93747 32.6318 2.84942 32.438 2.82548C32.2442 2.80154 32.048 2.84308 31.8806 2.9435L30.8814 3.54375L30.5988 2.41325C30.5515 2.22387 30.4423 2.05572 30.2885 1.93554C30.1347 1.81536 29.9452 1.75005 29.75 1.75H26.25C26.0548 1.75005 25.8653 1.81536 25.7115 1.93554C25.5577 2.05572 25.4485 2.22387 25.4013 2.41325L25.1186 3.54375L24.1194 2.9435C23.952 2.84308 23.7558 2.80154 23.562 2.82548C23.3683 2.84942 23.1881 2.93747 23.0501 3.07563L20.5756 5.55012C20.4377 5.68801 20.3498 5.86803 20.3258 6.06159C20.3019 6.25515 20.3433 6.45117 20.4435 6.6185L21.0438 7.61862L19.9124 7.90125C19.7232 7.94865 19.5552 8.05792 19.4352 8.21169C19.3152 8.36547 19.25 8.55494 19.25 8.75V12.25C19.25 12.4451 19.3152 12.6345 19.4352 12.7883C19.5552 12.9421 19.7232 13.0513 19.9124 13.0988L21.0429 13.3814L20.4435 14.3806C20.3433 14.548 20.3019 14.744 20.3258 14.9375C20.3498 15.1311 20.4377 15.3111 20.5756 15.449L23.0501 17.9244C23.1881 18.0625 23.3683 18.1506 23.562 18.1745C23.7558 18.1985 23.952 18.1569 24.1194 18.0565L25.1186 17.4563L25.4013 18.5868C25.4485 18.7761 25.5577 18.9443 25.7115 19.0645C25.8653 19.1846 26.0548 19.2499 26.25 19.25H27.125V21.161C26.615 21.3413 26.1731 21.6748 25.8598 22.1159C25.5466 22.5569 25.3772 23.084 25.375 23.625V25.1125L23.772 27.517C23.6867 27.6451 23.6366 27.7935 23.6269 27.9471C23.6173 28.1007 23.6483 28.2542 23.7169 28.392L25.4669 31.892C25.5706 32.0997 25.7526 32.2577 25.9728 32.3312C26.193 32.4047 26.4334 32.3877 26.6411 32.284C26.8488 32.1803 27.0068 31.9983 27.0803 31.7781C27.1538 31.5578 27.1369 31.3174 27.0331 31.1098L25.5098 28.0639L26.7181 26.25H29.2819L30.4903 28.063L28.9625 31.1089C28.8588 31.3166 28.8418 31.557 28.9153 31.7772C28.9888 31.9974 29.1468 32.1794 29.3545 32.2831C29.5622 32.3869 29.8026 32.4038 30.0228 32.3303C30.243 32.2568 30.425 32.0988 30.5288 31.8911L32.2788 28.3911C32.3473 28.2533 32.3784 28.0999 32.3687 27.9462C32.359 27.7926 32.309 27.6442 32.2236 27.5161L30.625 25.1125V23.625C30.6228 23.084 30.4534 22.5569 30.1402 22.1159C29.8269 21.6748 29.385 21.3413 28.875 21.161V19.25H29.75C29.9452 19.2499 30.1347 19.1846 30.2885 19.0645C30.4423 18.9443 30.5515 18.7761 30.5988 18.5868L30.8814 17.4563L31.8806 18.0565C32.048 18.1569 32.2442 18.1985 32.438 18.1745C32.6318 18.1506 32.8119 18.0625 32.9499 17.9244L35.4244 15.449C35.5623 15.3111 35.6502 15.1311 35.6742 14.9375C35.6981 14.744 35.6567 14.548 35.5565 14.3806L34.9571 13.3814L36.0876 13.0988C36.2768 13.0513 36.4448 12.9421 36.5648 12.7883C36.6848 12.6345 36.75 12.4451 36.75 12.25ZM28.875 24.5H27.125V23.625C27.125 23.3929 27.2172 23.1704 27.3813 23.0063C27.5454 22.8422 27.7679 22.75 28 22.75C28.2321 22.75 28.4546 22.8422 28.6187 23.0063C28.7828 23.1704 28.875 23.3929 28.875 23.625V24.5ZM35 11.5666L33.3865 11.9709C33.254 12.0041 33.131 12.0678 33.0276 12.157C32.9241 12.2463 32.843 12.3585 32.7906 12.4847C32.7383 12.6109 32.7163 12.7476 32.7263 12.8839C32.7364 13.0202 32.7782 13.1522 32.8484 13.2694L33.7041 14.6948L32.2 16.2041L30.7738 15.3484C30.6565 15.278 30.5244 15.236 30.3881 15.2259C30.2517 15.2158 30.1148 15.2378 29.9885 15.2901C29.8622 15.3424 29.7498 15.4236 29.6606 15.5272C29.5713 15.6308 29.5075 15.7538 29.4744 15.8865L29.0666 17.5H26.9334L26.53 15.8865C26.4969 15.7538 26.4331 15.6308 26.3438 15.5272C26.2545 15.4236 26.1422 15.3424 26.0159 15.2901C25.8895 15.2378 25.7527 15.2158 25.6163 15.2259C25.48 15.236 25.3479 15.278 25.2306 15.3484L23.8044 16.2041L22.2959 14.6948L23.1516 13.2694C23.2218 13.1522 23.2636 13.0202 23.2737 12.8839C23.2837 12.7476 23.2617 12.6109 23.2094 12.4847C23.1571 12.3585 23.0759 12.2463 22.9724 12.157C22.869 12.0678 22.746 12.0041 22.6135 11.9709L21 11.5666V9.43338L22.6135 9.02913C22.746 8.99595 22.869 8.93219 22.9724 8.84297C23.0759 8.75374 23.1571 8.64153 23.2094 8.51531C23.2617 8.38909 23.2837 8.25237 23.2737 8.11611C23.2636 7.97985 23.2218 7.84783 23.1516 7.73063L22.2959 6.30437L23.8044 4.795L25.2306 5.65163C25.3479 5.72202 25.48 5.76396 25.6163 5.77408C25.7527 5.7842 25.8895 5.76222 26.0159 5.70989C26.1422 5.65757 26.2545 5.57637 26.3438 5.4728C26.4331 5.36923 26.4969 5.24617 26.53 5.1135L26.9334 3.5H29.0666L29.47 5.1135C29.5031 5.24617 29.5669 5.36923 29.6562 5.4728C29.7455 5.57637 29.8578 5.65757 29.9841 5.70989C30.1105 5.76222 30.2473 5.7842 30.3837 5.77408C30.52 5.76396 30.6521 5.72202 30.7694 5.65163L32.2 4.795L33.7085 6.30437L32.8528 7.73063C32.7825 7.84783 32.7407 7.97985 32.7307 8.11611C32.7207 8.25237 32.7427 8.38909 32.795 8.51531C32.8473 8.64153 32.9285 8.75374 33.0319 8.84297C33.1354 8.93219 33.2583 8.99595 33.3909 9.02913L35 9.43338V11.5666Z" fill="#000080"/>
<path d="M28 7C27.3078 7 26.6311 7.20527 26.0555 7.58986C25.4799 7.97444 25.0313 8.52107 24.7664 9.16061C24.5015 9.80015 24.4322 10.5039 24.5673 11.1828C24.7023 11.8617 25.0356 12.4854 25.5251 12.9749C26.0146 13.4644 26.6383 13.7977 27.3172 13.9327C27.9961 14.0678 28.6999 13.9985 29.3394 13.7336C29.9789 13.4687 30.5256 13.0201 30.9101 12.4445C31.2947 11.8689 31.5 11.1922 31.5 10.5C31.5 9.57174 31.1313 8.6815 30.4749 8.02513C29.8185 7.36875 28.9283 7 28 7ZM28 12.25C27.6539 12.25 27.3155 12.1474 27.0278 11.9551C26.74 11.7628 26.5157 11.4895 26.3832 11.1697C26.2508 10.8499 26.2161 10.4981 26.2836 10.1586C26.3512 9.81913 26.5178 9.50731 26.7626 9.26256C27.0073 9.01782 27.3191 8.85115 27.6586 8.78363C27.9981 8.7161 28.3499 8.75076 28.6697 8.88321C28.9895 9.01566 29.2628 9.23997 29.4551 9.52775C29.6474 9.81554 29.75 10.1539 29.75 10.5C29.75 10.9641 29.5656 11.4092 29.2374 11.7374C28.9093 12.0656 28.4641 12.25 28 12.25ZM4.375 13.125H8.75V18.536C8.23995 18.7163 7.79808 19.0498 7.48483 19.4909C7.17157 19.9319 7.00224 20.459 7 21V22.4875L5.397 24.8894C5.31166 25.0175 5.26162 25.1658 5.25194 25.3195C5.24226 25.4731 5.27328 25.6266 5.34188 25.7644L7.09187 29.2644C7.19561 29.4721 7.3776 29.6301 7.59781 29.7036C7.81803 29.7771 8.05843 29.7601 8.26612 29.6564C8.47382 29.5526 8.63181 29.3707 8.70532 29.1504C8.77883 28.9302 8.76186 28.6898 8.65813 28.4821L7.13475 25.438L8.34312 23.625H10.9069L12.1152 25.438L10.5919 28.4839C10.4881 28.6916 10.4712 28.932 10.5447 29.1522C10.6182 29.3724 10.7762 29.5544 10.9839 29.6581C11.1916 29.7619 11.432 29.7788 11.6522 29.7053C11.8724 29.6318 12.0544 29.4738 12.1581 29.2661L13.9081 25.7661C13.9767 25.6283 14.0077 25.4749 13.9981 25.3212C13.9884 25.1676 13.9383 25.0192 13.853 24.8911L12.25 22.4875V21C12.2478 20.459 12.0784 19.9319 11.7652 19.4909C11.4519 19.0498 11.01 18.7163 10.5 18.536V13.125H17.3871V11.375H4.375C4.14294 11.375 3.92038 11.2828 3.75628 11.1187C3.59219 10.9546 3.5 10.7321 3.5 10.5C3.5 10.2679 3.59219 10.0454 3.75628 9.88128C3.92038 9.71719 4.14294 9.625 4.375 9.625H17.472V7.875H4.375C3.67881 7.875 3.01113 8.15156 2.51884 8.64384C2.02656 9.13613 1.75 9.80381 1.75 10.5C1.75 11.1962 2.02656 11.8639 2.51884 12.3562C3.01113 12.8484 3.67881 13.125 4.375 13.125ZM10.5 21.875H8.75V21C8.75 20.7679 8.84219 20.5454 9.00628 20.3813C9.17038 20.2172 9.39294 20.125 9.625 20.125C9.85706 20.125 10.0796 20.2172 10.2437 20.3813C10.4078 20.5454 10.5 20.7679 10.5 21V21.875ZM51.625 7.875H38.472V9.625H51.625C51.8571 9.625 52.0796 9.71719 52.2437 9.88128C52.4078 10.0454 52.5 10.2679 52.5 10.5C52.5 10.7321 52.4078 10.9546 52.2437 11.1187C52.0796 11.2828 51.8571 11.375 51.625 11.375H38.5V13.125H45.5V18.536C44.99 18.7163 44.5481 19.0498 44.2348 19.4909C43.9216 19.9319 43.7522 20.459 43.75 21V22.4875L42.147 24.892C42.0617 25.0201 42.0116 25.1685 42.0019 25.3221C41.9923 25.4757 42.0233 25.6292 42.0919 25.767L43.8419 29.267C43.9456 29.4747 44.1276 29.6327 44.3478 29.7062C44.568 29.7797 44.8084 29.7627 45.0161 29.659C45.2238 29.5553 45.3818 29.3733 45.4553 29.1531C45.5288 28.9328 45.5119 28.6924 45.4081 28.4848L43.8848 25.4389L45.0931 23.625H47.6569L48.8652 25.438L47.3419 28.4839C47.2381 28.6916 47.2212 28.932 47.2947 29.1522C47.3682 29.3724 47.5262 29.5544 47.7339 29.6581C47.9416 29.7619 48.182 29.7788 48.4022 29.7053C48.6224 29.6318 48.8044 29.4738 48.9081 29.2661L50.6581 25.7661C50.7267 25.6283 50.7577 25.4749 50.7481 25.3212C50.7384 25.1676 50.6883 25.0192 50.603 24.8911L49 22.4875V21C48.9978 20.459 48.8284 19.9319 48.5152 19.4909C48.2019 19.0498 47.76 18.7163 47.25 18.536V13.125H51.625C52.3212 13.125 52.9889 12.8484 53.4812 12.3562C53.9734 11.8639 54.25 11.1962 54.25 10.5C54.25 9.80381 53.9734 9.13613 53.4812 8.64384C52.9889 8.15156 52.3212 7.875 51.625 7.875ZM47.25 21.875H45.5V21C45.5 20.7679 45.5922 20.5454 45.7563 20.3813C45.9204 20.2172 46.1429 20.125 46.375 20.125C46.6071 20.125 46.8296 20.2172 46.9937 20.3813C47.1578 20.5454 47.25 20.7679 47.25 21V21.875Z" fill="#000080"/>
</svg>
