<svg width="56" height="56" viewBox="0 0 56 56" fill="none" xmlns="http://www.w3.org/2000/svg">
<path d="M18.6654 23.333H37.332M16.332 32.6663H18.6654M37.332 32.6663H39.6654" stroke="#000080" stroke-width="2.5" stroke-linecap="round" stroke-linejoin="round"/>
<path d="M7 41.9997V26.623C7.00048 25.9916 7.12907 25.3669 7.378 24.7867L12.789 12.1633C13.1484 11.3236 13.7464 10.6079 14.5087 10.1048C15.271 9.60164 16.1643 9.3333 17.0777 9.33301H38.9223C39.8355 9.33311 40.7285 9.6011 41.4908 10.1038C42.2531 10.6065 42.8512 11.3217 43.211 12.161L48.6243 24.7843C48.8731 25.3662 49.0009 25.9926 49 26.6253V41.9997M7 41.9997V47.5997C7 47.971 7.1475 48.3271 7.41005 48.5896C7.6726 48.8522 8.0287 48.9997 8.4 48.9997H14.9333C15.3046 48.9997 15.6607 48.8522 15.9233 48.5896C16.1858 48.3271 16.3333 47.971 16.3333 47.5997V41.9997M7 41.9997H16.3333M49 41.9997V47.5997C49 47.971 48.8525 48.3271 48.5899 48.5896C48.3274 48.8522 47.9713 48.9997 47.6 48.9997H41.0667C40.8828 48.9997 40.7008 48.9635 40.5309 48.8931C40.3611 48.8228 40.2067 48.7196 40.0767 48.5896C39.9467 48.4596 39.8436 48.3053 39.7732 48.1354C39.7029 47.9656 39.6667 47.7835 39.6667 47.5997V41.9997M49 41.9997H39.6667M16.3333 41.9997H39.6667" stroke="#000080" stroke-width="2.5"/>
</svg>
