<svg width="56" height="56" viewBox="0 0 56 56" fill="none" xmlns="http://www.w3.org/2000/svg">
<path d="M42.7942 35.6708L42.9026 35.866L48.2109 45.4327L48.2156 45.4412L48.22 45.4499C48.3327 45.673 48.3962 45.9244 48.3569 46.1879L47.8624 46.114L48.3569 46.1879C48.3178 46.4495 48.187 46.6691 48.0106 46.8455L47.657 46.492L48.0106 46.8455C47.7835 47.0725 47.4919 47.167 47.1904 47.167C46.8892 47.167 46.598 47.0728 46.3711 46.8464C46.3708 46.8461 46.3704 46.8458 46.3701 46.8455M42.7942 35.6708L46.7237 46.492L46.3701 46.8455M42.7942 35.6708L42.5765 35.6211L35.9265 34.1045L35.6572 34.043L35.4618 34.2384C35.3554 34.3448 35.2573 34.4693 35.166 34.6063C35.1018 34.7026 35.0443 34.7726 34.9951 34.8217L34.6407 35.1762L34.9961 35.5298L46.3701 46.8455M42.7942 35.6708L46.3701 46.8455M30.3332 33.167C31.12 33.1667 31.8033 32.8945 32.3493 32.3485L30.3332 33.167ZM30.3332 33.167C30.3328 33.167 30.3324 33.167 30.332 33.167V32.667L30.3344 33.167C30.334 33.167 30.3336 33.167 30.3332 33.167ZM23.8587 53.167C23.9611 52.2326 24.3577 51.4245 25.0573 50.7261C25.8792 49.9056 26.851 49.5017 27.9993 49.5003L28.4987 49.4997V49.0003V36.867V36.5336L28.191 36.4054C27.7479 36.2208 27.335 36.009 26.9515 35.7704C26.5668 35.5311 26.2095 35.2659 25.8791 34.975L25.5972 34.7268L25.2803 34.9285L20.1572 38.1886C19.6708 38.4649 19.1396 38.6479 18.5596 38.7363C17.9943 38.8226 17.4176 38.7806 16.8245 38.6043L16.8245 38.6043L16.8183 38.6026L6.31834 35.6275L6.315 35.6266C5.29563 35.3454 4.46513 34.7787 3.81142 33.9127C3.15903 33.0485 2.83351 32.0749 2.83203 30.975C2.8321 29.628 3.29645 28.5022 4.23232 27.5678C5.16869 26.6328 6.29505 26.1684 7.64089 26.167H25.1987H25.4199L25.5687 26.0033C25.9309 25.6048 26.3278 25.2624 26.7594 24.9746C27.191 24.6869 27.6597 24.4523 28.1669 24.2712L28.4987 24.1526V23.8003V15.8086C28.4987 15.2133 28.6124 14.6592 28.8376 14.1413C29.0635 13.6215 29.3821 13.1735 29.7955 12.7933L29.7984 12.7906L37.79 5.32397L37.7901 5.324L37.7943 5.31994C38.6112 4.53858 39.5485 4.10317 40.6196 3.99789C41.6978 3.89191 42.6861 4.11954 43.6016 4.68341C44.737 5.39343 45.4657 6.38559 45.8035 7.68175C46.139 8.96874 45.9562 10.1586 45.2501 11.2847L45.25 11.2846L45.2458 11.2916L35.9708 26.6333L35.8172 26.8874L35.9668 27.1439C36.2144 27.5684 36.4016 28.0299 36.5275 28.5305C36.6566 29.0443 36.7392 29.578 36.7747 30.1322L36.7983 30.5001L37.1567 30.5864L43.4524 32.102C43.4531 32.1022 43.4538 32.1024 43.4545 32.1026C44.0097 32.2416 44.5103 32.4836 44.9605 32.8299C45.4137 33.1785 45.7772 33.5942 46.0547 34.0791C46.0552 34.0799 46.0557 34.0808 46.0562 34.0817L51.3615 43.6429L51.3616 43.6431C51.8939 44.6012 52.0858 45.6015 51.9448 46.6592C51.8041 47.7138 51.3504 48.6248 50.5701 49.4051C49.6119 50.3633 48.4845 50.8336 47.1624 50.8336C45.8402 50.8336 44.7118 50.3633 43.752 49.4048L33.0189 38.6717L32.1654 37.8182V39.0253V49.0003V49.5003H32.6654C33.8149 49.5003 34.7871 49.9041 35.6088 50.7258C36.3086 51.4256 36.7046 52.2338 36.8059 53.167H23.8587ZM32.324 15.4433L32.1654 15.5915V15.8086V23.8003V24.3003H32.5651C32.6694 24.3494 32.7758 24.3617 32.8612 24.3582L33.1303 24.347L33.269 24.1161L42.1356 9.35779L42.1456 9.3412L42.1542 9.32389C42.2852 9.06193 42.3163 8.77876 42.2536 8.49528C42.1856 8.18795 42.0042 7.93897 41.7222 7.79077C41.4701 7.63523 41.1875 7.62114 40.9284 7.67896C40.7154 7.72652 40.4865 7.81172 40.3122 7.97982L32.324 15.4433ZM17.8856 35.1308L18.095 35.191L18.2816 35.0786L23.7066 31.812L24.008 31.6305L23.939 31.2856C23.9049 31.1151 23.8904 30.9737 23.8904 30.8586V30.3336V29.8336H23.3904H7.64036C7.33879 29.8336 7.04718 29.928 6.82014 30.1551C6.59311 30.3821 6.4987 30.6737 6.4987 30.9753C6.4987 31.2183 6.5609 31.4533 6.69934 31.661C6.85412 31.8931 7.0808 32.0341 7.33467 32.0996L17.8856 35.1308ZM9.83203 11.167V7.50029H22.832V11.167H9.83203ZM2.83203 20.5003V16.8336H13.4987V20.5003H2.83203ZM7.4987 48.5003V44.8336H18.1654V48.5003H7.4987Z" fill="#000080" stroke="white"/>
</svg>
