<svg width="56" height="56" viewBox="0 0 56 56" fill="none" xmlns="http://www.w3.org/2000/svg">
<path d="M12.6667 16.5H5V46.2083C5 48.8505 7.14954 51 9.79167 51H46.2083C48.8505 51 51 48.8505 51 46.2083V5H12.6667V16.5ZM6.91667 46.2083V18.4167H12.6667V46.2083C12.6667 47.7934 11.3767 49.0833 9.79167 49.0833C8.20658 49.0833 6.91667 47.7934 6.91667 46.2083ZM14.5833 6.91667H49.0833V46.2083C49.0833 47.7934 47.7934 49.0833 46.2083 49.0833H13.6231C13.6518 49.046 13.672 49.0028 13.6988 48.9645C13.7534 48.8869 13.8013 48.8054 13.8512 48.724C14.1131 48.3042 14.3068 47.8455 14.4252 47.365C14.4472 47.275 14.475 47.1887 14.4923 47.0967C14.5479 46.8082 14.5833 46.5131 14.5833 46.2083V6.91667Z" fill="#000080"/>
<path d="M18 12H45V13.8857H18V12ZM21.8571 16.7143H41.1429V18.6H21.8571V16.7143ZM33.4286 24.2571H45V26.1429H33.4286V24.2571ZM33.4286 28.9714H45V30.8571H33.4286V28.9714ZM29.5714 24.2571H18V35.5714H29.5714V24.2571ZM27.6429 33.6857H19.9286V26.1429H27.6429V33.6857ZM33.4286 33.6857H45V35.5714H33.4286V33.6857ZM18 38.4H29.5714V40.2857H18V38.4ZM33.4286 38.4H45V40.2857H33.4286V38.4ZM18 43.1143H29.5714V45H18V43.1143ZM33.4286 43.1143H45V45H33.4286V43.1143Z" fill="#000080"/>
</svg>
